solid NSTT rev3_2
facet normal 0.13052619222005127 -0.9914448613738105 0.0
  outer loop
    vertex 118.14224447274906 23.366213309001672 1.0999999999999546
    vertex 117.22165019116505 23.245014772566464 -4.511946372076636e-14
    vertex 118.14224447274906 23.366213309001672 -4.511946372076636e-14
  endloop
endfacet
facet normal 0.13052619222005127 -0.9914448613738105 0.0
  outer loop
    vertex 117.22165019116505 23.245014772566464 -4.511946372076636e-14
    vertex 118.14224447274906 23.366213309001672 1.0999999999999546
    vertex 117.22165019116505 23.245014772566464 1.0999999999999546
  endloop
endfacet
facet normal 0.0 0.0 1.0
  outer loop
    vertex 113.78594555913612 25.881323659446583 1.0999999999999546
    vertex 113.78594555913612 27.722512222614608 1.0999999999999546
    vertex 113.66474702270092 26.801917941030595 1.0999999999999546
  endloop
endfacet
facet normal 0.0 0.0 1.0
  outer loop
    vertex 113.78594555913612 27.722512222614608 1.0999999999999546
    vertex 113.78594555913612 25.881323659446583 1.0999999999999546
    vertex 114.14128168847375 25.023466356798522 1.0999999999999546
  endloop
endfacet
facet normal 0.0 0.0 1.0
  outer loop
    vertex 113.78594555913612 27.722512222614608 1.0999999999999546
    vertex 114.14128168847375 25.023466356798522 1.0999999999999546
    vertex 114.14128168847375 28.580369525262658 1.0999999999999546
  endloop
endfacet
facet normal 0.0 0.0 1.0
  outer loop
    vertex 114.14128168847375 28.580369525262658 1.0999999999999546
    vertex 114.14128168847375 25.023466356798522 1.0999999999999546
    vertex 114.70653984072017 24.28680759058568 1.0999999999999546
  endloop
endfacet
facet normal 0.0 0.0 1.0
  outer loop
    vertex 114.14128168847375 28.580369525262658 1.0999999999999546
    vertex 114.70653984072017 24.28680759058568 1.0999999999999546
    vertex 114.47165019116505 26.801917941030595 1.0999999999999546
  endloop
endfacet
facet normal 0.0 0.0 1.0
  outer loop
    vertex 114.47165019116505 26.801917941030595 1.0999999999999546
    vertex 114.70653984072017 24.28680759058568 1.0999999999999546
    vertex 114.56535416887012 26.09016556699866 1.0999999999999546
  endloop
endfacet
facet normal 0.0 0.0 1.0
  outer loop
    vertex 114.56535416887012 26.09016556699866 1.0999999999999546
    vertex 114.70653984072017 24.28680759058568 1.0999999999999546
    vertex 114.84008033075786 25.42691794103059 1.0999999999999546
  endloop
endfacet
facet normal 0.0 0.0 1.0
  outer loop
    vertex 114.84008033075786 25.42691794103059 1.0999999999999546
    vertex 114.70653984072017 24.28680759058568 1.0999999999999546
    vertex 115.44319860693295 23.72154943833931 1.0999999999999546
  endloop
endfacet
facet normal 0.0 0.0 1.0
  outer loop
    vertex 114.84008033075786 25.42691794103059 1.0999999999999546
    vertex 115.44319860693295 23.72154943833931 1.0999999999999546
    vertex 115.27710654290206 24.857374292767584 1.0999999999999546
  endloop
endfacet
facet normal 0.0 0.0 1.0
  outer loop
    vertex 115.27710654290206 24.857374292767584 1.0999999999999546
    vertex 115.44319860693295 23.72154943833931 1.0999999999999546
    vertex 115.84665019116505 24.42034808062338 1.0999999999999546
  endloop
endfacet
facet normal 0.0 0.0 1.0
  outer loop
    vertex 115.84665019116505 24.42034808062338 1.0999999999999546
    vertex 115.44319860693295 23.72154943833931 1.0999999999999546
    vertex 116.30105590958105 23.366213309001676 1.0999999999999546
  endloop
endfacet
facet normal 0.0 0.0 1.0
  outer loop
    vertex 115.84665019116505 24.42034808062338 1.0999999999999546
    vertex 116.30105590958105 23.366213309001676 1.0999999999999546
    vertex 116.50989781713314 24.14562191873565 1.0999999999999546
  endloop
endfacet
facet normal 0.0 0.0 1.0
  outer loop
    vertex 116.50989781713314 24.14562191873565 1.0999999999999546
    vertex 116.30105590958105 23.366213309001676 1.0999999999999546
    vertex 117.22165019116505 23.245014772566464 1.0999999999999546
  endloop
endfacet
facet normal 0.0 0.0 1.0
  outer loop
    vertex 116.50989781713314 24.14562191873565 1.0999999999999546
    vertex 117.22165019116505 23.245014772566464 1.0999999999999546
    vertex 117.22165019116505 24.051917941030588 1.0999999999999546
  endloop
endfacet
facet normal 0.0 0.0 1.0
  outer loop
    vertex 117.22165019116505 24.051917941030588 1.0999999999999546
    vertex 117.22165019116505 23.245014772566464 1.0999999999999546
    vertex 118.14224447274906 23.366213309001672 1.0999999999999546
  endloop
endfacet
facet normal 0.0 0.0 1.0
  outer loop
    vertex 117.22165019116505 24.051917941030588 1.0999999999999546
    vertex 118.14224447274906 23.366213309001672 1.0999999999999546
    vertex 117.93340256519699 24.14562191873565 1.0999999999999546
  endloop
endfacet
facet normal 0.0 0.0 1.0
  outer loop
    vertex 117.93340256519699 24.14562191873565 1.0999999999999546
    vertex 118.14224447274906 23.366213309001672 1.0999999999999546
    vertex 118.59665019116505 24.42034808062338 1.0999999999999546
  endloop
endfacet
facet normal 0.0 0.0 1.0
  outer loop
    vertex 118.59665019116505 24.42034808062338 1.0999999999999546
    vertex 118.14224447274906 23.366213309001672 1.0999999999999546
    vertex 119.00010177539716 23.72154943833931 1.0999999999999546
  endloop
endfacet
facet normal 0.0 0.0 1.0
  outer loop
    vertex 118.59665019116505 24.42034808062338 1.0999999999999546
    vertex 119.00010177539716 23.72154943833931 1.0999999999999546
    vertex 119.16619383942806 24.857374292767584 1.0999999999999546
  endloop
endfacet
facet normal 0.0 0.0 1.0
  outer loop
    vertex 119.16619383942806 24.857374292767584 1.0999999999999546
    vertex 119.00010177539716 23.72154943833931 1.0999999999999546
    vertex 119.73676054160995 24.28680759058568 1.0999999999999546
  endloop
endfacet
facet normal 0.0 0.0 1.0
  outer loop
    vertex 119.16619383942806 24.857374292767584 1.0999999999999546
    vertex 119.73676054160995 24.28680759058568 1.0999999999999546
    vertex 119.60322005157226 25.42691794103059 1.0999999999999546
  endloop
endfacet
facet normal 0.0 0.0 1.0
  outer loop
    vertex 119.60322005157226 25.42691794103059 1.0999999999999546
    vertex 119.73676054160995 24.28680759058568 1.0999999999999546
    vertex 119.87794621346 26.09016556699866 1.0999999999999546
  endloop
endfacet
facet normal 0.0 0.0 1.0
  outer loop
    vertex 119.87794621346 26.09016556699866 1.0999999999999546
    vertex 119.73676054160995 24.28680759058568 1.0999999999999546
    vertex 120.30201869385635 25.023466356798522 1.0999999999999546
  endloop
endfacet
facet normal 0.0 0.0 1.0
  outer loop
    vertex 119.87794621346 26.09016556699866 1.0999999999999546
    vertex 120.30201869385635 25.023466356798522 1.0999999999999546
    vertex 119.97165019116507 26.801917941030595 1.0999999999999546
  endloop
endfacet
facet normal 0.0 0.0 1.0
  outer loop
    vertex 114.47165019116505 26.801917941030595 1.0999999999999546
    vertex 114.70653984072017 29.317028291475502 1.0999999999999546
    vertex 114.14128168847375 28.580369525262658 1.0999999999999546
  endloop
endfacet
facet normal 0.0 0.0 1.0
  outer loop
    vertex 114.70653984072017 29.317028291475502 1.0999999999999546
    vertex 114.47165019116505 26.801917941030595 1.0999999999999546
    vertex 114.56535416887012 27.51367031506253 1.0999999999999546
  endloop
endfacet
facet normal 0.0 0.0 1.0
  outer loop
    vertex 114.70653984072017 29.317028291475502 1.0999999999999546
    vertex 114.56535416887012 27.51367031506253 1.0999999999999546
    vertex 114.84008033075786 28.176917941030595 1.0999999999999546
  endloop
endfacet
facet normal 0.0 0.0 1.0
  outer loop
    vertex 114.70653984072017 29.317028291475502 1.0999999999999546
    vertex 114.84008033075786 28.176917941030595 1.0999999999999546
    vertex 115.44319860693295 29.88228644372188 1.0999999999999546
  endloop
endfacet
facet normal 0.0 0.0 1.0
  outer loop
    vertex 115.44319860693295 29.88228644372188 1.0999999999999546
    vertex 114.84008033075786 28.176917941030595 1.0999999999999546
    vertex 115.27710654290206 28.746461589293606 1.0999999999999546
  endloop
endfacet
facet normal 0.0 0.0 1.0
  outer loop
    vertex 115.44319860693295 29.88228644372188 1.0999999999999546
    vertex 115.27710654290206 28.746461589293606 1.0999999999999546
    vertex 115.84665019116505 29.18348780143781 1.0999999999999546
  endloop
endfacet
facet normal 0.0 0.0 1.0
  outer loop
    vertex 115.44319860693295 29.88228644372188 1.0999999999999546
    vertex 115.84665019116505 29.18348780143781 1.0999999999999546
    vertex 116.30105590958105 30.237622573059507 1.0999999999999546
  endloop
endfacet
facet normal 0.0 0.0 1.0
  outer loop
    vertex 116.30105590958105 30.237622573059507 1.0999999999999546
    vertex 115.84665019116505 29.18348780143781 1.0999999999999546
    vertex 116.50989781713314 29.458213963325537 1.0999999999999546
  endloop
endfacet
facet normal 0.0 0.0 1.0
  outer loop
    vertex 116.30105590958105 30.237622573059507 1.0999999999999546
    vertex 116.50989781713314 29.458213963325537 1.0999999999999546
    vertex 117.22165019116508 30.358821109494723 1.0999999999999546
  endloop
endfacet
facet normal 0.0 0.0 1.0
  outer loop
    vertex 117.22165019116508 30.358821109494723 1.0999999999999546
    vertex 116.50989781713314 29.458213963325537 1.0999999999999546
    vertex 117.22165019116505 29.5519179410306 1.0999999999999546
  endloop
endfacet
facet normal 0.0 0.0 1.0
  outer loop
    vertex 117.22165019116508 30.358821109494723 1.0999999999999546
    vertex 117.22165019116505 29.5519179410306 1.0999999999999546
    vertex 117.933402565197 29.458213963325537 1.0999999999999546
  endloop
endfacet
facet normal 0.0 0.0 1.0
  outer loop
    vertex 117.22165019116508 30.358821109494723 1.0999999999999546
    vertex 117.933402565197 29.458213963325537 1.0999999999999546
    vertex 118.14224447274908 30.237622573059515 1.0999999999999546
  endloop
endfacet
facet normal 0.0 0.0 1.0
  outer loop
    vertex 118.14224447274908 30.237622573059515 1.0999999999999546
    vertex 117.933402565197 29.458213963325537 1.0999999999999546
    vertex 118.59665019116505 29.183487801437803 1.0999999999999546
  endloop
endfacet
facet normal 0.0 0.0 1.0
  outer loop
    vertex 118.14224447274908 30.237622573059515 1.0999999999999546
    vertex 118.59665019116505 29.183487801437803 1.0999999999999546
    vertex 119.00010177539711 29.882286443721892 1.0999999999999546
  endloop
endfacet
facet normal 0.0 0.0 1.0
  outer loop
    vertex 119.00010177539711 29.882286443721892 1.0999999999999546
    vertex 118.59665019116505 29.183487801437803 1.0999999999999546
    vertex 119.16619383942808 28.746461589293606 1.0999999999999546
  endloop
endfacet
facet normal 0.0 0.0 1.0
  outer loop
    vertex 119.00010177539711 29.882286443721892 1.0999999999999546
    vertex 119.16619383942808 28.746461589293606 1.0999999999999546
    vertex 119.73676054160995 29.317028291475513 1.0999999999999546
  endloop
endfacet
facet normal 0.0 0.0 1.0
  outer loop
    vertex 119.73676054160995 29.317028291475513 1.0999999999999546
    vertex 119.16619383942808 28.746461589293606 1.0999999999999546
    vertex 119.60322005157226 28.176917941030595 1.0999999999999546
  endloop
endfacet
facet normal 0.0 0.0 1.0
  outer loop
    vertex 119.73676054160995 29.317028291475513 1.0999999999999546
    vertex 119.60322005157226 28.176917941030595 1.0999999999999546
    vertex 119.87794621346 27.51367031506253 1.0999999999999546
  endloop
endfacet
facet normal 0.0 0.0 1.0
  outer loop
    vertex 119.73676054160995 29.317028291475513 1.0999999999999546
    vertex 119.87794621346 27.51367031506253 1.0999999999999546
    vertex 120.30201869385638 28.58036952526261 1.0999999999999546
  endloop
endfacet
facet normal 0.0 0.0 1.0
  outer loop
    vertex 120.30201869385638 28.58036952526261 1.0999999999999546
    vertex 119.87794621346 27.51367031506253 1.0999999999999546
    vertex 119.97165019116507 26.801917941030595 1.0999999999999546
  endloop
endfacet
facet normal 0.0 0.0 1.0
  outer loop
    vertex 120.30201869385638 28.58036952526261 1.0999999999999546
    vertex 119.97165019116507 26.801917941030595 1.0999999999999546
    vertex 120.30201869385635 25.023466356798522 1.0999999999999546
  endloop
endfacet
facet normal 0.0 0.0 1.0
  outer loop
    vertex 120.30201869385638 28.58036952526261 1.0999999999999546
    vertex 120.30201869385635 25.023466356798522 1.0999999999999546
    vertex 120.657354823194 25.881323659446583 1.0999999999999546
  endloop
endfacet
facet normal 0.0 0.0 1.0
  outer loop
    vertex 120.30201869385638 28.58036952526261 1.0999999999999546
    vertex 120.657354823194 25.881323659446583 1.0999999999999546
    vertex 120.657354823194 27.722512222614608 1.0999999999999546
  endloop
endfacet
facet normal 0.0 0.0 1.0
  outer loop
    vertex 120.657354823194 27.722512222614608 1.0999999999999546
    vertex 120.657354823194 25.881323659446583 1.0999999999999546
    vertex 120.77855335962919 26.801917941030595 1.0999999999999546
  endloop
endfacet
facet normal -0.6087614290087293 -0.7933533402912287 -0.0
  outer loop
    vertex 115.44319860693295 23.72154943833931 1.0999999999999546
    vertex 114.70653984072017 24.28680759058568 -4.511946372076636e-14
    vertex 115.44319860693295 23.72154943833931 -4.511946372076636e-14
  endloop
endfacet
facet normal -0.6087614290087293 -0.7933533402912287 -0.0
  outer loop
    vertex 114.70653984072017 24.28680759058568 -4.511946372076636e-14
    vertex 115.44319860693295 23.72154943833931 1.0999999999999546
    vertex 114.70653984072017 24.28680759058568 1.0999999999999546
  endloop
endfacet
facet normal 0.7933533402912336 -0.6087614290087227 0.0
  outer loop
    vertex 115.27710654290206 28.746461589293606 -4.511946372076636e-14
    vertex 114.84008033075786 28.176917941030595 1.0999999999999546
    vertex 114.84008033075786 28.176917941030595 -4.511946372076636e-14
  endloop
endfacet
facet normal 0.7933533402912336 -0.6087614290087227 0.0
  outer loop
    vertex 114.84008033075786 28.176917941030595 1.0999999999999546
    vertex 115.27710654290206 28.746461589293606 -4.511946372076636e-14
    vertex 115.27710654290206 28.746461589293606 1.0999999999999546
  endloop
endfacet
facet normal -0.7933533402912291 -0.6087614290087288 -0.0
  outer loop
    vertex 114.14128168847375 25.023466356798522 1.0999999999999546
    vertex 114.70653984072017 24.28680759058568 -4.511946372076636e-14
    vertex 114.70653984072017 24.28680759058568 1.0999999999999546
  endloop
endfacet
facet normal -0.7933533402912291 -0.6087614290087288 -0.0
  outer loop
    vertex 114.70653984072017 24.28680759058568 -4.511946372076636e-14
    vertex 114.14128168847375 25.023466356798522 1.0999999999999546
    vertex 114.14128168847375 25.023466356798522 -4.511946372076636e-14
  endloop
endfacet
facet normal -0.13052619222005427 -0.9914448613738102 -0.0
  outer loop
    vertex 117.22165019116505 23.245014772566464 1.0999999999999546
    vertex 116.30105590958105 23.366213309001676 -4.511946372076636e-14
    vertex 117.22165019116505 23.245014772566464 -4.511946372076636e-14
  endloop
endfacet
facet normal -0.13052619222005427 -0.9914448613738102 -0.0
  outer loop
    vertex 116.30105590958105 23.366213309001676 -4.511946372076636e-14
    vertex 117.22165019116505 23.245014772566464 1.0999999999999546
    vertex 116.30105590958105 23.366213309001676 1.0999999999999546
  endloop
endfacet
facet normal -0.38268343236508195 -0.92387953251129 -0.0
  outer loop
    vertex 116.30105590958105 23.366213309001676 1.0999999999999546
    vertex 115.44319860693295 23.72154943833931 -4.511946372076636e-14
    vertex 116.30105590958105 23.366213309001676 -4.511946372076636e-14
  endloop
endfacet
facet normal -0.38268343236508195 -0.92387953251129 -0.0
  outer loop
    vertex 115.44319860693295 23.72154943833931 -4.511946372076636e-14
    vertex 116.30105590958105 23.366213309001676 1.0999999999999546
    vertex 115.44319860693295 23.72154943833931 1.0999999999999546
  endloop
endfacet
facet normal 0.9238795325112824 0.38268343236510083 0.0
  outer loop
    vertex 120.30201869385638 28.58036952526261 -4.511946372076636e-14
    vertex 120.657354823194 27.722512222614608 1.0999999999999546
    vertex 120.657354823194 27.722512222614608 -4.511946372076636e-14
  endloop
endfacet
facet normal 0.9238795325112824 0.38268343236510083 0.0
  outer loop
    vertex 120.657354823194 27.722512222614608 1.0999999999999546
    vertex 120.30201869385638 28.58036952526261 -4.511946372076636e-14
    vertex 120.30201869385638 28.58036952526261 1.0999999999999546
  endloop
endfacet
facet normal -0.13052619222005138 0.9914448613738106 0.0
  outer loop
    vertex 117.22165019116505 24.051917941030588 1.0999999999999546
    vertex 117.93340256519699 24.14562191873565 -4.511946372076636e-14
    vertex 117.22165019116505 24.051917941030588 -4.511946372076636e-14
  endloop
endfacet
facet normal -0.13052619222005138 0.9914448613738106 0.0
  outer loop
    vertex 117.93340256519699 24.14562191873565 -4.511946372076636e-14
    vertex 117.22165019116505 24.051917941030588 1.0999999999999546
    vertex 117.93340256519699 24.14562191873565 1.0999999999999546
  endloop
endfacet
facet normal -0.1305261922200541 0.9914448613738102 0.0
  outer loop
    vertex 116.30105590958105 30.237622573059507 1.0999999999999546
    vertex 117.22165019116508 30.358821109494723 -4.511946372076636e-14
    vertex 116.30105590958105 30.237622573059507 -4.511946372076636e-14
  endloop
endfacet
facet normal -0.1305261922200541 0.9914448613738102 0.0
  outer loop
    vertex 117.22165019116508 30.358821109494723 -4.511946372076636e-14
    vertex 116.30105590958105 30.237622573059507 1.0999999999999546
    vertex 117.22165019116508 30.358821109494723 1.0999999999999546
  endloop
endfacet
facet normal -0.9914448613738132 0.13052619222003178 0.0
  outer loop
    vertex 113.78594555913612 27.722512222614608 1.0999999999999546
    vertex 113.66474702270092 26.801917941030595 -4.511946372076636e-14
    vertex 113.66474702270092 26.801917941030595 1.0999999999999546
  endloop
endfacet
facet normal -0.9914448613738132 0.13052619222003178 0.0
  outer loop
    vertex 113.66474702270092 26.801917941030595 -4.511946372076636e-14
    vertex 113.78594555913612 27.722512222614608 1.0999999999999546
    vertex 113.78594555913612 27.722512222614608 -4.511946372076636e-14
  endloop
endfacet
facet normal 0.6087614290087293 -0.7933533402912287 0.0
  outer loop
    vertex 119.73676054160995 24.28680759058568 1.0999999999999546
    vertex 119.00010177539716 23.72154943833931 -4.511946372076636e-14
    vertex 119.73676054160995 24.28680759058568 -4.511946372076636e-14
  endloop
endfacet
facet normal 0.6087614290087293 -0.7933533402912287 0.0
  outer loop
    vertex 119.00010177539716 23.72154943833931 -4.511946372076636e-14
    vertex 119.73676054160995 24.28680759058568 1.0999999999999546
    vertex 119.00010177539716 23.72154943833931 1.0999999999999546
  endloop
endfacet
facet normal 0.9238795325112817 -0.3826834323651018 0.0
  outer loop
    vertex 114.84008033075786 28.176917941030595 -4.511946372076636e-14
    vertex 114.56535416887012 27.51367031506253 1.0999999999999546
    vertex 114.56535416887012 27.51367031506253 -4.511946372076636e-14
  endloop
endfacet
facet normal 0.9238795325112817 -0.3826834323651018 0.0
  outer loop
    vertex 114.56535416887012 27.51367031506253 1.0999999999999546
    vertex 114.84008033075786 28.176917941030595 -4.511946372076636e-14
    vertex 114.84008033075786 28.176917941030595 1.0999999999999546
  endloop
endfacet
facet normal 0.13052619222005127 0.9914448613738105 0.0
  outer loop
    vertex 117.22165019116508 30.358821109494723 1.0999999999999546
    vertex 118.14224447274908 30.237622573059515 -4.511946372076636e-14
    vertex 117.22165019116508 30.358821109494723 -4.511946372076636e-14
  endloop
endfacet
facet normal 0.13052619222005127 0.9914448613738105 0.0
  outer loop
    vertex 118.14224447274908 30.237622573059515 -4.511946372076636e-14
    vertex 117.22165019116508 30.358821109494723 1.0999999999999546
    vertex 118.14224447274908 30.237622573059515 1.0999999999999546
  endloop
endfacet
facet normal -0.9238795325112817 0.3826834323651018 0.0
  outer loop
    vertex 119.87794621346 26.09016556699866 1.0999999999999546
    vertex 119.60322005157226 25.42691794103059 -4.511946372076636e-14
    vertex 119.60322005157226 25.42691794103059 1.0999999999999546
  endloop
endfacet
facet normal -0.9238795325112817 0.3826834323651018 0.0
  outer loop
    vertex 119.60322005157226 25.42691794103059 -4.511946372076636e-14
    vertex 119.87794621346 26.09016556699866 1.0999999999999546
    vertex 119.87794621346 26.09016556699866 -4.511946372076636e-14
  endloop
endfacet
facet normal 0.9914448613738132 0.13052619222003178 0.0
  outer loop
    vertex 120.657354823194 27.722512222614608 -4.511946372076636e-14
    vertex 120.77855335962919 26.801917941030595 1.0999999999999546
    vertex 120.77855335962919 26.801917941030595 -4.511946372076636e-14
  endloop
endfacet
facet normal 0.9914448613738132 0.13052619222003178 0.0
  outer loop
    vertex 120.77855335962919 26.801917941030595 1.0999999999999546
    vertex 120.657354823194 27.722512222614608 -4.511946372076636e-14
    vertex 120.657354823194 27.722512222614608 1.0999999999999546
  endloop
endfacet
facet normal 0.9914448613738107 0.13052619222004933 0.0
  outer loop
    vertex 114.47165019116505 26.801917941030595 -4.511946372076636e-14
    vertex 114.56535416887012 26.09016556699866 1.0999999999999546
    vertex 114.56535416887012 26.09016556699866 -4.511946372076636e-14
  endloop
endfacet
facet normal 0.9914448613738107 0.13052619222004933 0.0
  outer loop
    vertex 114.56535416887012 26.09016556699866 1.0999999999999546
    vertex 114.47165019116505 26.801917941030595 -4.511946372076636e-14
    vertex 114.47165019116505 26.801917941030595 1.0999999999999546
  endloop
endfacet
facet normal 0.9914448613738132 -0.13052619222003178 0.0
  outer loop
    vertex 120.77855335962919 26.801917941030595 -4.511946372076636e-14
    vertex 120.657354823194 25.881323659446583 1.0999999999999546
    vertex 120.657354823194 25.881323659446583 -4.511946372076636e-14
  endloop
endfacet
facet normal 0.9914448613738132 -0.13052619222003178 0.0
  outer loop
    vertex 120.657354823194 25.881323659446583 1.0999999999999546
    vertex 120.77855335962919 26.801917941030595 -4.511946372076636e-14
    vertex 120.77855335962919 26.801917941030595 1.0999999999999546
  endloop
endfacet
facet normal -0.9238795325112809 0.3826834323651044 0.0
  outer loop
    vertex 114.14128168847375 28.580369525262658 1.0999999999999546
    vertex 113.78594555913612 27.722512222614608 -4.511946372076636e-14
    vertex 113.78594555913612 27.722512222614608 1.0999999999999546
  endloop
endfacet
facet normal -0.9238795325112809 0.3826834323651044 0.0
  outer loop
    vertex 113.78594555913612 27.722512222614608 -4.511946372076636e-14
    vertex 114.14128168847375 28.580369525262658 1.0999999999999546
    vertex 114.14128168847375 28.580369525262658 -4.511946372076636e-14
  endloop
endfacet
facet normal 0.9238795325112817 0.3826834323651018 0.0
  outer loop
    vertex 114.56535416887012 26.09016556699866 -4.511946372076636e-14
    vertex 114.84008033075786 25.42691794103059 1.0999999999999546
    vertex 114.84008033075786 25.42691794103059 -4.511946372076636e-14
  endloop
endfacet
facet normal 0.9238795325112817 0.3826834323651018 0.0
  outer loop
    vertex 114.84008033075786 25.42691794103059 1.0999999999999546
    vertex 114.56535416887012 26.09016556699866 -4.511946372076636e-14
    vertex 114.56535416887012 26.09016556699866 1.0999999999999546
  endloop
endfacet
facet normal -0.7933533402912313 0.6087614290087259 0.0
  outer loop
    vertex 114.70653984072017 29.317028291475502 1.0999999999999546
    vertex 114.14128168847375 28.580369525262658 -4.511946372076636e-14
    vertex 114.14128168847375 28.580369525262658 1.0999999999999546
  endloop
endfacet
facet normal -0.7933533402912313 0.6087614290087259 0.0
  outer loop
    vertex 114.14128168847375 28.580369525262658 -4.511946372076636e-14
    vertex 114.70653984072017 29.317028291475502 1.0999999999999546
    vertex 114.70653984072017 29.317028291475502 -4.511946372076636e-14
  endloop
endfacet
facet normal -0.3826834323650768 0.9238795325112923 0.0
  outer loop
    vertex 115.44319860693295 29.88228644372188 1.0999999999999546
    vertex 116.30105590958105 30.237622573059507 -4.511946372076636e-14
    vertex 115.44319860693295 29.88228644372188 -4.511946372076636e-14
  endloop
endfacet
facet normal -0.3826834323650768 0.9238795325112923 0.0
  outer loop
    vertex 116.30105590958105 30.237622573059507 -4.511946372076636e-14
    vertex 115.44319860693295 29.88228644372188 1.0999999999999546
    vertex 116.30105590958105 30.237622573059507 1.0999999999999546
  endloop
endfacet
facet normal -0.7933533402912336 0.6087614290087227 0.0
  outer loop
    vertex 119.60322005157226 25.42691794103059 1.0999999999999546
    vertex 119.16619383942806 24.857374292767584 -4.511946372076636e-14
    vertex 119.16619383942806 24.857374292767584 1.0999999999999546
  endloop
endfacet
facet normal -0.7933533402912336 0.6087614290087227 0.0
  outer loop
    vertex 119.16619383942806 24.857374292767584 -4.511946372076636e-14
    vertex 119.60322005157226 25.42691794103059 1.0999999999999546
    vertex 119.60322005157226 25.42691794103059 -4.511946372076636e-14
  endloop
endfacet
facet normal 0.3826834323650974 0.9238795325112836 0.0
  outer loop
    vertex 118.14224447274908 30.237622573059515 1.0999999999999546
    vertex 119.00010177539711 29.882286443721892 -4.511946372076636e-14
    vertex 118.14224447274908 30.237622573059515 -4.511946372076636e-14
  endloop
endfacet
facet normal 0.3826834323650974 0.9238795325112836 0.0
  outer loop
    vertex 119.00010177539711 29.882286443721892 -4.511946372076636e-14
    vertex 118.14224447274908 30.237622573059515 1.0999999999999546
    vertex 119.00010177539711 29.882286443721892 1.0999999999999546
  endloop
endfacet
facet normal -0.7933533402912488 -0.6087614290087029 -0.0
  outer loop
    vertex 119.16619383942808 28.746461589293606 1.0999999999999546
    vertex 119.60322005157226 28.176917941030595 -4.511946372076636e-14
    vertex 119.60322005157226 28.176917941030595 1.0999999999999546
  endloop
endfacet
facet normal -0.7933533402912488 -0.6087614290087029 -0.0
  outer loop
    vertex 119.60322005157226 28.176917941030595 -4.511946372076636e-14
    vertex 119.16619383942808 28.746461589293606 1.0999999999999546
    vertex 119.16619383942808 28.746461589293606 -4.511946372076636e-14
  endloop
endfacet
facet normal 0.1305261922200552 0.9914448613738099 0.0
  outer loop
    vertex 116.50989781713314 24.14562191873565 1.0999999999999546
    vertex 117.22165019116505 24.051917941030588 -4.511946372076636e-14
    vertex 116.50989781713314 24.14562191873565 -4.511946372076636e-14
  endloop
endfacet
facet normal 0.1305261922200552 0.9914448613738099 0.0
  outer loop
    vertex 117.22165019116505 24.051917941030588 -4.511946372076636e-14
    vertex 116.50989781713314 24.14562191873565 1.0999999999999546
    vertex 117.22165019116505 24.051917941030588 1.0999999999999546
  endloop
endfacet
facet normal 0.13052619222005138 -0.9914448613738106 0.0
  outer loop
    vertex 117.22165019116505 29.5519179410306 1.0999999999999546
    vertex 116.50989781713314 29.458213963325537 -4.511946372076636e-14
    vertex 117.22165019116505 29.5519179410306 -4.511946372076636e-14
  endloop
endfacet
facet normal 0.13052619222005138 -0.9914448613738106 0.0
  outer loop
    vertex 116.50989781713314 29.458213963325537 -4.511946372076636e-14
    vertex 117.22165019116505 29.5519179410306 1.0999999999999546
    vertex 116.50989781713314 29.458213963325537 1.0999999999999546
  endloop
endfacet
facet normal 0.6087614290087279 0.7933533402912298 0.0
  outer loop
    vertex 115.27710654290206 24.857374292767584 1.0999999999999546
    vertex 115.84665019116505 24.42034808062338 -4.511946372076636e-14
    vertex 115.27710654290206 24.857374292767584 -4.511946372076636e-14
  endloop
endfacet
facet normal 0.6087614290087279 0.7933533402912298 0.0
  outer loop
    vertex 115.84665019116505 24.42034808062338 -4.511946372076636e-14
    vertex 115.27710654290206 24.857374292767584 1.0999999999999546
    vertex 115.84665019116505 24.42034808062338 1.0999999999999546
  endloop
endfacet
facet normal 0.9914448613738107 -0.13052619222004933 0.0
  outer loop
    vertex 114.56535416887012 27.51367031506253 -4.511946372076636e-14
    vertex 114.47165019116505 26.801917941030595 1.0999999999999546
    vertex 114.47165019116505 26.801917941030595 -4.511946372076636e-14
  endloop
endfacet
facet normal 0.9914448613738107 -0.13052619222004933 0.0
  outer loop
    vertex 114.47165019116505 26.801917941030595 1.0999999999999546
    vertex 114.56535416887012 27.51367031506253 -4.511946372076636e-14
    vertex 114.56535416887012 27.51367031506253 1.0999999999999546
  endloop
endfacet
facet normal -0.6087614290087279 0.7933533402912298 0.0
  outer loop
    vertex 118.59665019116505 24.42034808062338 1.0999999999999546
    vertex 119.16619383942806 24.857374292767584 -4.511946372076636e-14
    vertex 118.59665019116505 24.42034808062338 -4.511946372076636e-14
  endloop
endfacet
facet normal -0.6087614290087279 0.7933533402912298 0.0
  outer loop
    vertex 119.16619383942806 24.857374292767584 -4.511946372076636e-14
    vertex 118.59665019116505 24.42034808062338 1.0999999999999546
    vertex 119.16619383942806 24.857374292767584 1.0999999999999546
  endloop
endfacet
facet normal 0.6087614290087303 -0.793353340291228 0.0
  outer loop
    vertex 115.84665019116505 29.18348780143781 1.0999999999999546
    vertex 115.27710654290206 28.746461589293606 -4.511946372076636e-14
    vertex 115.84665019116505 29.18348780143781 -4.511946372076636e-14
  endloop
endfacet
facet normal 0.6087614290087303 -0.793353340291228 0.0
  outer loop
    vertex 115.27710654290206 28.746461589293606 -4.511946372076636e-14
    vertex 115.84665019116505 29.18348780143781 1.0999999999999546
    vertex 115.27710654290206 28.746461589293606 1.0999999999999546
  endloop
endfacet
facet normal 0.3826834323650846 -0.9238795325112891 0.0
  outer loop
    vertex 119.00010177539716 23.72154943833931 1.0999999999999546
    vertex 118.14224447274906 23.366213309001672 -4.511946372076636e-14
    vertex 119.00010177539716 23.72154943833931 -4.511946372076636e-14
  endloop
endfacet
facet normal 0.3826834323650846 -0.9238795325112891 0.0
  outer loop
    vertex 118.14224447274906 23.366213309001672 -4.511946372076636e-14
    vertex 119.00010177539716 23.72154943833931 1.0999999999999546
    vertex 118.14224447274906 23.366213309001672 1.0999999999999546
  endloop
endfacet
facet normal -0.1305261922200473 -0.9914448613738112 -0.0
  outer loop
    vertex 117.933402565197 29.458213963325537 1.0999999999999546
    vertex 117.22165019116505 29.5519179410306 -4.511946372076636e-14
    vertex 117.933402565197 29.458213963325537 -4.511946372076636e-14
  endloop
endfacet
facet normal -0.1305261922200473 -0.9914448613738112 -0.0
  outer loop
    vertex 117.22165019116505 29.5519179410306 -4.511946372076636e-14
    vertex 117.933402565197 29.458213963325537 1.0999999999999546
    vertex 117.22165019116505 29.5519179410306 1.0999999999999546
  endloop
endfacet
facet normal 0.7933533402912336 0.6087614290087227 0.0
  outer loop
    vertex 114.84008033075786 25.42691794103059 -4.511946372076636e-14
    vertex 115.27710654290206 24.857374292767584 1.0999999999999546
    vertex 115.27710654290206 24.857374292767584 -4.511946372076636e-14
  endloop
endfacet
facet normal 0.7933533402912336 0.6087614290087227 0.0
  outer loop
    vertex 115.27710654290206 24.857374292767584 1.0999999999999546
    vertex 114.84008033075786 25.42691794103059 -4.511946372076636e-14
    vertex 114.84008033075786 25.42691794103059 1.0999999999999546
  endloop
endfacet
facet normal -0.9238795325112817 -0.3826834323651018 -0.0
  outer loop
    vertex 119.60322005157226 28.176917941030595 1.0999999999999546
    vertex 119.87794621346 27.51367031506253 -4.511946372076636e-14
    vertex 119.87794621346 27.51367031506253 1.0999999999999546
  endloop
endfacet
facet normal -0.9238795325112817 -0.3826834323651018 -0.0
  outer loop
    vertex 119.87794621346 27.51367031506253 -4.511946372076636e-14
    vertex 119.60322005157226 28.176917941030595 1.0999999999999546
    vertex 119.60322005157226 28.176917941030595 -4.511946372076636e-14
  endloop
endfacet
facet normal 0.3826834323650829 -0.9238795325112896 0.0
  outer loop
    vertex 116.50989781713314 29.458213963325537 1.0999999999999546
    vertex 115.84665019116505 29.18348780143781 -4.511946372076636e-14
    vertex 116.50989781713314 29.458213963325537 -4.511946372076636e-14
  endloop
endfacet
facet normal 0.3826834323650829 -0.9238795325112896 0.0
  outer loop
    vertex 115.84665019116505 29.18348780143781 -4.511946372076636e-14
    vertex 116.50989781713314 29.458213963325537 1.0999999999999546
    vertex 115.84665019116505 29.18348780143781 1.0999999999999546
  endloop
endfacet
facet normal -0.38268343236508634 0.9238795325112884 0.0
  outer loop
    vertex 117.93340256519699 24.14562191873565 1.0999999999999546
    vertex 118.59665019116505 24.42034808062338 -4.511946372076636e-14
    vertex 117.93340256519699 24.14562191873565 -4.511946372076636e-14
  endloop
endfacet
facet normal -0.38268343236508634 0.9238795325112884 0.0
  outer loop
    vertex 118.59665019116505 24.42034808062338 -4.511946372076636e-14
    vertex 117.93340256519699 24.14562191873565 1.0999999999999546
    vertex 118.59665019116505 24.42034808062338 1.0999999999999546
  endloop
endfacet
facet normal -0.6087614290087331 0.7933533402912256 0.0
  outer loop
    vertex 114.70653984072017 29.317028291475502 1.0999999999999546
    vertex 115.44319860693295 29.88228644372188 -4.511946372076636e-14
    vertex 114.70653984072017 29.317028291475502 -4.511946372076636e-14
  endloop
endfacet
facet normal -0.6087614290087331 0.7933533402912256 0.0
  outer loop
    vertex 115.44319860693295 29.88228644372188 -4.511946372076636e-14
    vertex 114.70653984072017 29.317028291475502 1.0999999999999546
    vertex 115.44319860693295 29.88228644372188 1.0999999999999546
  endloop
endfacet
facet normal 0.3826834323650829 0.9238795325112896 0.0
  outer loop
    vertex 115.84665019116505 24.42034808062338 1.0999999999999546
    vertex 116.50989781713314 24.14562191873565 -4.511946372076636e-14
    vertex 115.84665019116505 24.42034808062338 -4.511946372076636e-14
  endloop
endfacet
facet normal 0.3826834323650829 0.9238795325112896 0.0
  outer loop
    vertex 116.50989781713314 24.14562191873565 -4.511946372076636e-14
    vertex 115.84665019116505 24.42034808062338 1.0999999999999546
    vertex 116.50989781713314 24.14562191873565 1.0999999999999546
  endloop
endfacet
facet normal -0.3826834323651008 -0.9238795325112824 -0.0
  outer loop
    vertex 118.59665019116505 29.183487801437803 1.0999999999999546
    vertex 117.933402565197 29.458213963325537 -4.511946372076636e-14
    vertex 118.59665019116505 29.183487801437803 -4.511946372076636e-14
  endloop
endfacet
facet normal -0.3826834323651008 -0.9238795325112824 -0.0
  outer loop
    vertex 117.933402565197 29.458213963325537 -4.511946372076636e-14
    vertex 118.59665019116505 29.183487801437803 1.0999999999999546
    vertex 117.933402565197 29.458213963325537 1.0999999999999546
  endloop
endfacet
facet normal -0.9914448613738107 0.13052619222004933 0.0
  outer loop
    vertex 119.97165019116507 26.801917941030595 1.0999999999999546
    vertex 119.87794621346 26.09016556699866 -4.511946372076636e-14
    vertex 119.87794621346 26.09016556699866 1.0999999999999546
  endloop
endfacet
facet normal -0.9914448613738107 0.13052619222004933 0.0
  outer loop
    vertex 119.87794621346 26.09016556699866 -4.511946372076636e-14
    vertex 119.97165019116507 26.801917941030595 1.0999999999999546
    vertex 119.97165019116507 26.801917941030595 -4.511946372076636e-14
  endloop
endfacet
facet normal 0.9238795325112822 -0.3826834323651011 0.0
  outer loop
    vertex 120.657354823194 25.881323659446583 -4.511946372076636e-14
    vertex 120.30201869385635 25.023466356798522 1.0999999999999546
    vertex 120.30201869385635 25.023466356798522 -4.511946372076636e-14
  endloop
endfacet
facet normal 0.9238795325112822 -0.3826834323651011 0.0
  outer loop
    vertex 120.30201869385635 25.023466356798522 1.0999999999999546
    vertex 120.657354823194 25.881323659446583 -4.511946372076636e-14
    vertex 120.657354823194 25.881323659446583 1.0999999999999546
  endloop
endfacet
facet normal 0.6087614290087097 0.7933533402912436 0.0
  outer loop
    vertex 119.00010177539711 29.882286443721892 1.0999999999999546
    vertex 119.73676054160995 29.317028291475513 -4.511946372076636e-14
    vertex 119.00010177539711 29.882286443721892 -4.511946372076636e-14
  endloop
endfacet
facet normal 0.6087614290087097 0.7933533402912436 0.0
  outer loop
    vertex 119.73676054160995 29.317028291475513 -4.511946372076636e-14
    vertex 119.00010177539711 29.882286443721892 1.0999999999999546
    vertex 119.73676054160995 29.317028291475513 1.0999999999999546
  endloop
endfacet
facet normal -0.9914448613738107 -0.13052619222004933 -0.0
  outer loop
    vertex 119.87794621346 27.51367031506253 1.0999999999999546
    vertex 119.97165019116507 26.801917941030595 -4.511946372076636e-14
    vertex 119.97165019116507 26.801917941030595 1.0999999999999546
  endloop
endfacet
facet normal -0.9914448613738107 -0.13052619222004933 -0.0
  outer loop
    vertex 119.97165019116507 26.801917941030595 -4.511946372076636e-14
    vertex 119.87794621346 27.51367031506253 1.0999999999999546
    vertex 119.87794621346 27.51367031506253 -4.511946372076636e-14
  endloop
endfacet
facet normal 0.0 0.0 -1.0
  outer loop
    vertex 113.78594555913612 27.722512222614608 -4.511946372076636e-14
    vertex 113.78594555913612 25.881323659446583 -4.511946372076636e-14
    vertex 113.66474702270092 26.801917941030595 -4.511946372076636e-14
  endloop
endfacet
facet normal 0.0 0.0 -1.0
  outer loop
    vertex 113.78594555913612 25.881323659446583 -4.511946372076636e-14
    vertex 113.78594555913612 27.722512222614608 -4.511946372076636e-14
    vertex 114.14128168847375 28.580369525262658 -4.511946372076636e-14
  endloop
endfacet
facet normal 0.0 0.0 -1.0
  outer loop
    vertex 113.78594555913612 25.881323659446583 -4.511946372076636e-14
    vertex 114.14128168847375 28.580369525262658 -4.511946372076636e-14
    vertex 114.14128168847375 25.023466356798522 -4.511946372076636e-14
  endloop
endfacet
facet normal 0.0 0.0 -1.0
  outer loop
    vertex 114.14128168847375 25.023466356798522 -4.511946372076636e-14
    vertex 114.14128168847375 28.580369525262658 -4.511946372076636e-14
    vertex 114.70653984072017 29.317028291475502 -4.511946372076636e-14
  endloop
endfacet
facet normal 0.0 0.0 -1.0
  outer loop
    vertex 114.14128168847375 25.023466356798522 -4.511946372076636e-14
    vertex 114.70653984072017 29.317028291475502 -4.511946372076636e-14
    vertex 114.47165019116505 26.801917941030595 -4.511946372076636e-14
  endloop
endfacet
facet normal 0.0 0.0 -1.0
  outer loop
    vertex 114.47165019116505 26.801917941030595 -4.511946372076636e-14
    vertex 114.70653984072017 29.317028291475502 -4.511946372076636e-14
    vertex 114.56535416887012 27.51367031506253 -4.511946372076636e-14
  endloop
endfacet
facet normal 0.0 0.0 -1.0
  outer loop
    vertex 114.56535416887012 27.51367031506253 -4.511946372076636e-14
    vertex 114.70653984072017 29.317028291475502 -4.511946372076636e-14
    vertex 114.84008033075786 28.176917941030595 -4.511946372076636e-14
  endloop
endfacet
facet normal 0.0 0.0 -1.0
  outer loop
    vertex 114.84008033075786 28.176917941030595 -4.511946372076636e-14
    vertex 114.70653984072017 29.317028291475502 -4.511946372076636e-14
    vertex 115.44319860693295 29.88228644372188 -4.511946372076636e-14
  endloop
endfacet
facet normal 0.0 0.0 -1.0
  outer loop
    vertex 114.84008033075786 28.176917941030595 -4.511946372076636e-14
    vertex 115.44319860693295 29.88228644372188 -4.511946372076636e-14
    vertex 115.27710654290206 28.746461589293606 -4.511946372076636e-14
  endloop
endfacet
facet normal 0.0 0.0 -1.0
  outer loop
    vertex 115.27710654290206 28.746461589293606 -4.511946372076636e-14
    vertex 115.44319860693295 29.88228644372188 -4.511946372076636e-14
    vertex 115.84665019116505 29.18348780143781 -4.511946372076636e-14
  endloop
endfacet
facet normal 0.0 0.0 -1.0
  outer loop
    vertex 115.84665019116505 29.18348780143781 -4.511946372076636e-14
    vertex 115.44319860693295 29.88228644372188 -4.511946372076636e-14
    vertex 116.30105590958105 30.237622573059507 -4.511946372076636e-14
  endloop
endfacet
facet normal 0.0 0.0 -1.0
  outer loop
    vertex 115.84665019116505 29.18348780143781 -4.511946372076636e-14
    vertex 116.30105590958105 30.237622573059507 -4.511946372076636e-14
    vertex 116.50989781713314 29.458213963325537 -4.511946372076636e-14
  endloop
endfacet
facet normal 0.0 0.0 -1.0
  outer loop
    vertex 116.50989781713314 29.458213963325537 -4.511946372076636e-14
    vertex 116.30105590958105 30.237622573059507 -4.511946372076636e-14
    vertex 117.22165019116508 30.358821109494723 -4.511946372076636e-14
  endloop
endfacet
facet normal 0.0 0.0 -1.0
  outer loop
    vertex 116.50989781713314 29.458213963325537 -4.511946372076636e-14
    vertex 117.22165019116508 30.358821109494723 -4.511946372076636e-14
    vertex 117.22165019116505 29.5519179410306 -4.511946372076636e-14
  endloop
endfacet
facet normal 0.0 0.0 -1.0
  outer loop
    vertex 117.22165019116505 29.5519179410306 -4.511946372076636e-14
    vertex 117.22165019116508 30.358821109494723 -4.511946372076636e-14
    vertex 117.933402565197 29.458213963325537 -4.511946372076636e-14
  endloop
endfacet
facet normal 0.0 0.0 -1.0
  outer loop
    vertex 117.933402565197 29.458213963325537 -4.511946372076636e-14
    vertex 117.22165019116508 30.358821109494723 -4.511946372076636e-14
    vertex 118.14224447274908 30.237622573059515 -4.511946372076636e-14
  endloop
endfacet
facet normal 0.0 0.0 -1.0
  outer loop
    vertex 117.933402565197 29.458213963325537 -4.511946372076636e-14
    vertex 118.14224447274908 30.237622573059515 -4.511946372076636e-14
    vertex 118.59665019116505 29.183487801437803 -4.511946372076636e-14
  endloop
endfacet
facet normal 0.0 0.0 -1.0
  outer loop
    vertex 118.59665019116505 29.183487801437803 -4.511946372076636e-14
    vertex 118.14224447274908 30.237622573059515 -4.511946372076636e-14
    vertex 119.00010177539711 29.882286443721892 -4.511946372076636e-14
  endloop
endfacet
facet normal 0.0 0.0 -1.0
  outer loop
    vertex 118.59665019116505 29.183487801437803 -4.511946372076636e-14
    vertex 119.00010177539711 29.882286443721892 -4.511946372076636e-14
    vertex 119.16619383942808 28.746461589293606 -4.511946372076636e-14
  endloop
endfacet
facet normal 0.0 0.0 -1.0
  outer loop
    vertex 119.16619383942808 28.746461589293606 -4.511946372076636e-14
    vertex 119.00010177539711 29.882286443721892 -4.511946372076636e-14
    vertex 119.73676054160995 29.317028291475513 -4.511946372076636e-14
  endloop
endfacet
facet normal 0.0 0.0 -1.0
  outer loop
    vertex 119.16619383942808 28.746461589293606 -4.511946372076636e-14
    vertex 119.73676054160995 29.317028291475513 -4.511946372076636e-14
    vertex 119.60322005157226 28.176917941030595 -4.511946372076636e-14
  endloop
endfacet
facet normal 0.0 0.0 -1.0
  outer loop
    vertex 119.60322005157226 28.176917941030595 -4.511946372076636e-14
    vertex 119.73676054160995 29.317028291475513 -4.511946372076636e-14
    vertex 119.87794621346 27.51367031506253 -4.511946372076636e-14
  endloop
endfacet
facet normal 0.0 0.0 -1.0
  outer loop
    vertex 119.87794621346 27.51367031506253 -4.511946372076636e-14
    vertex 119.73676054160995 29.317028291475513 -4.511946372076636e-14
    vertex 120.30201869385638 28.58036952526261 -4.511946372076636e-14
  endloop
endfacet
facet normal 0.0 0.0 -1.0
  outer loop
    vertex 119.87794621346 27.51367031506253 -4.511946372076636e-14
    vertex 120.30201869385638 28.58036952526261 -4.511946372076636e-14
    vertex 119.97165019116507 26.801917941030595 -4.511946372076636e-14
  endloop
endfacet
facet normal 0.0 0.0 -1.0
  outer loop
    vertex 119.97165019116507 26.801917941030595 -4.511946372076636e-14
    vertex 120.30201869385638 28.58036952526261 -4.511946372076636e-14
    vertex 120.30201869385635 25.023466356798522 -4.511946372076636e-14
  endloop
endfacet
facet normal 0.0 0.0 -1.0
  outer loop
    vertex 120.30201869385635 25.023466356798522 -4.511946372076636e-14
    vertex 120.30201869385638 28.58036952526261 -4.511946372076636e-14
    vertex 120.657354823194 25.881323659446583 -4.511946372076636e-14
  endloop
endfacet
facet normal 0.0 0.0 -1.0
  outer loop
    vertex 120.657354823194 25.881323659446583 -4.511946372076636e-14
    vertex 120.30201869385638 28.58036952526261 -4.511946372076636e-14
    vertex 120.657354823194 27.722512222614608 -4.511946372076636e-14
  endloop
endfacet
facet normal 0.0 0.0 -1.0
  outer loop
    vertex 120.657354823194 25.881323659446583 -4.511946372076636e-14
    vertex 120.657354823194 27.722512222614608 -4.511946372076636e-14
    vertex 120.77855335962919 26.801917941030595 -4.511946372076636e-14
  endloop
endfacet
facet normal 0.0 0.0 -1.0
  outer loop
    vertex 114.47165019116505 26.801917941030595 -4.511946372076636e-14
    vertex 114.70653984072017 24.28680759058568 -4.511946372076636e-14
    vertex 114.14128168847375 25.023466356798522 -4.511946372076636e-14
  endloop
endfacet
facet normal 0.0 0.0 -1.0
  outer loop
    vertex 114.70653984072017 24.28680759058568 -4.511946372076636e-14
    vertex 114.47165019116505 26.801917941030595 -4.511946372076636e-14
    vertex 114.56535416887012 26.09016556699866 -4.511946372076636e-14
  endloop
endfacet
facet normal 0.0 0.0 -1.0
  outer loop
    vertex 114.70653984072017 24.28680759058568 -4.511946372076636e-14
    vertex 114.56535416887012 26.09016556699866 -4.511946372076636e-14
    vertex 114.84008033075786 25.42691794103059 -4.511946372076636e-14
  endloop
endfacet
facet normal 0.0 0.0 -1.0
  outer loop
    vertex 114.70653984072017 24.28680759058568 -4.511946372076636e-14
    vertex 114.84008033075786 25.42691794103059 -4.511946372076636e-14
    vertex 115.44319860693295 23.72154943833931 -4.511946372076636e-14
  endloop
endfacet
facet normal 0.0 0.0 -1.0
  outer loop
    vertex 115.44319860693295 23.72154943833931 -4.511946372076636e-14
    vertex 114.84008033075786 25.42691794103059 -4.511946372076636e-14
    vertex 115.27710654290206 24.857374292767584 -4.511946372076636e-14
  endloop
endfacet
facet normal 0.0 0.0 -1.0
  outer loop
    vertex 115.44319860693295 23.72154943833931 -4.511946372076636e-14
    vertex 115.27710654290206 24.857374292767584 -4.511946372076636e-14
    vertex 115.84665019116505 24.42034808062338 -4.511946372076636e-14
  endloop
endfacet
facet normal 0.0 0.0 -1.0
  outer loop
    vertex 115.44319860693295 23.72154943833931 -4.511946372076636e-14
    vertex 115.84665019116505 24.42034808062338 -4.511946372076636e-14
    vertex 116.30105590958105 23.366213309001676 -4.511946372076636e-14
  endloop
endfacet
facet normal 0.0 0.0 -1.0
  outer loop
    vertex 116.30105590958105 23.366213309001676 -4.511946372076636e-14
    vertex 115.84665019116505 24.42034808062338 -4.511946372076636e-14
    vertex 116.50989781713314 24.14562191873565 -4.511946372076636e-14
  endloop
endfacet
facet normal 0.0 0.0 -1.0
  outer loop
    vertex 116.30105590958105 23.366213309001676 -4.511946372076636e-14
    vertex 116.50989781713314 24.14562191873565 -4.511946372076636e-14
    vertex 117.22165019116505 23.245014772566464 -4.511946372076636e-14
  endloop
endfacet
facet normal 0.0 0.0 -1.0
  outer loop
    vertex 117.22165019116505 23.245014772566464 -4.511946372076636e-14
    vertex 116.50989781713314 24.14562191873565 -4.511946372076636e-14
    vertex 117.22165019116505 24.051917941030588 -4.511946372076636e-14
  endloop
endfacet
facet normal 0.0 0.0 -1.0
  outer loop
    vertex 117.22165019116505 23.245014772566464 -4.511946372076636e-14
    vertex 117.22165019116505 24.051917941030588 -4.511946372076636e-14
    vertex 117.93340256519699 24.14562191873565 -4.511946372076636e-14
  endloop
endfacet
facet normal 0.0 0.0 -1.0
  outer loop
    vertex 117.22165019116505 23.245014772566464 -4.511946372076636e-14
    vertex 117.93340256519699 24.14562191873565 -4.511946372076636e-14
    vertex 118.14224447274906 23.366213309001672 -4.511946372076636e-14
  endloop
endfacet
facet normal 0.0 0.0 -1.0
  outer loop
    vertex 118.14224447274906 23.366213309001672 -4.511946372076636e-14
    vertex 117.93340256519699 24.14562191873565 -4.511946372076636e-14
    vertex 118.59665019116505 24.42034808062338 -4.511946372076636e-14
  endloop
endfacet
facet normal 0.0 0.0 -1.0
  outer loop
    vertex 118.14224447274906 23.366213309001672 -4.511946372076636e-14
    vertex 118.59665019116505 24.42034808062338 -4.511946372076636e-14
    vertex 119.00010177539716 23.72154943833931 -4.511946372076636e-14
  endloop
endfacet
facet normal 0.0 0.0 -1.0
  outer loop
    vertex 119.00010177539716 23.72154943833931 -4.511946372076636e-14
    vertex 118.59665019116505 24.42034808062338 -4.511946372076636e-14
    vertex 119.16619383942806 24.857374292767584 -4.511946372076636e-14
  endloop
endfacet
facet normal 0.0 0.0 -1.0
  outer loop
    vertex 119.00010177539716 23.72154943833931 -4.511946372076636e-14
    vertex 119.16619383942806 24.857374292767584 -4.511946372076636e-14
    vertex 119.73676054160995 24.28680759058568 -4.511946372076636e-14
  endloop
endfacet
facet normal 0.0 0.0 -1.0
  outer loop
    vertex 119.73676054160995 24.28680759058568 -4.511946372076636e-14
    vertex 119.16619383942806 24.857374292767584 -4.511946372076636e-14
    vertex 119.60322005157226 25.42691794103059 -4.511946372076636e-14
  endloop
endfacet
facet normal 0.0 0.0 -1.0
  outer loop
    vertex 119.73676054160995 24.28680759058568 -4.511946372076636e-14
    vertex 119.60322005157226 25.42691794103059 -4.511946372076636e-14
    vertex 119.87794621346 26.09016556699866 -4.511946372076636e-14
  endloop
endfacet
facet normal 0.0 0.0 -1.0
  outer loop
    vertex 119.73676054160995 24.28680759058568 -4.511946372076636e-14
    vertex 119.87794621346 26.09016556699866 -4.511946372076636e-14
    vertex 120.30201869385635 25.023466356798522 -4.511946372076636e-14
  endloop
endfacet
facet normal 0.0 0.0 -1.0
  outer loop
    vertex 120.30201869385635 25.023466356798522 -4.511946372076636e-14
    vertex 119.87794621346 26.09016556699866 -4.511946372076636e-14
    vertex 119.97165019116507 26.801917941030595 -4.511946372076636e-14
  endloop
endfacet
facet normal -0.6087614290087101 -0.7933533402912433 -0.0
  outer loop
    vertex 119.16619383942808 28.746461589293606 1.0999999999999546
    vertex 118.59665019116505 29.183487801437803 -4.511946372076636e-14
    vertex 119.16619383942808 28.746461589293606 -4.511946372076636e-14
  endloop
endfacet
facet normal -0.6087614290087101 -0.7933533402912433 -0.0
  outer loop
    vertex 118.59665019116505 29.183487801437803 -4.511946372076636e-14
    vertex 119.16619383942808 28.746461589293606 1.0999999999999546
    vertex 118.59665019116505 29.183487801437803 1.0999999999999546
  endloop
endfacet
facet normal -0.9914448613738132 -0.13052619222003178 -0.0
  outer loop
    vertex 113.66474702270092 26.801917941030595 1.0999999999999546
    vertex 113.78594555913612 25.881323659446583 -4.511946372076636e-14
    vertex 113.78594555913612 25.881323659446583 1.0999999999999546
  endloop
endfacet
facet normal -0.9914448613738132 -0.13052619222003178 -0.0
  outer loop
    vertex 113.78594555913612 25.881323659446583 -4.511946372076636e-14
    vertex 113.66474702270092 26.801917941030595 1.0999999999999546
    vertex 113.66474702270092 26.801917941030595 -4.511946372076636e-14
  endloop
endfacet
facet normal -0.9238795325112822 -0.3826834323651011 -0.0
  outer loop
    vertex 113.78594555913612 25.881323659446583 1.0999999999999546
    vertex 114.14128168847375 25.023466356798522 -4.511946372076636e-14
    vertex 114.14128168847375 25.023466356798522 1.0999999999999546
  endloop
endfacet
facet normal -0.9238795325112822 -0.3826834323651011 -0.0
  outer loop
    vertex 114.14128168847375 25.023466356798522 -4.511946372076636e-14
    vertex 113.78594555913612 25.881323659446583 1.0999999999999546
    vertex 113.78594555913612 25.881323659446583 -4.511946372076636e-14
  endloop
endfacet
facet normal 0.7933533402912291 -0.6087614290087288 0.0
  outer loop
    vertex 120.30201869385635 25.023466356798522 -4.511946372076636e-14
    vertex 119.73676054160995 24.28680759058568 1.0999999999999546
    vertex 119.73676054160995 24.28680759058568 -4.511946372076636e-14
  endloop
endfacet
facet normal 0.7933533402912291 -0.6087614290087288 0.0
  outer loop
    vertex 119.73676054160995 24.28680759058568 1.0999999999999546
    vertex 120.30201869385635 25.023466356798522 -4.511946372076636e-14
    vertex 120.30201869385635 25.023466356798522 1.0999999999999546
  endloop
endfacet
facet normal 0.7933533402912419 0.6087614290087118 0.0
  outer loop
    vertex 119.73676054160995 29.317028291475513 -4.511946372076636e-14
    vertex 120.30201869385638 28.58036952526261 1.0999999999999546
    vertex 120.30201869385638 28.58036952526261 -4.511946372076636e-14
  endloop
endfacet
facet normal 0.7933533402912419 0.6087614290087118 0.0
  outer loop
    vertex 120.30201869385638 28.58036952526261 1.0999999999999546
    vertex 119.73676054160995 29.317028291475513 -4.511946372076636e-14
    vertex 119.73676054160995 29.317028291475513 1.0999999999999546
  endloop
endfacet
endsolid NSTT rev3_2
