solid NSTT rev3_2
facet normal 0.13052619222005127 -0.9914448613738105 0.0
  outer loop
    vertex 131.24224447274906 23.366213309001672 2.7999999999999545
    vertex 130.32165019116505 23.245014772566464 -4.511946372076636e-14
    vertex 131.24224447274906 23.366213309001672 -4.511946372076636e-14
  endloop
endfacet
facet normal 0.13052619222005127 -0.9914448613738105 0.0
  outer loop
    vertex 130.32165019116505 23.245014772566464 -4.511946372076636e-14
    vertex 131.24224447274906 23.366213309001672 2.7999999999999545
    vertex 130.32165019116505 23.245014772566464 2.7999999999999545
  endloop
endfacet
facet normal -0.6087614290087292 -0.7933533402912285 -0.0
  outer loop
    vertex 128.54319860693295 23.72154943833931 2.7999999999999545
    vertex 127.80653984072016 24.28680759058568 -4.511946372076636e-14
    vertex 128.54319860693295 23.72154943833931 -4.511946372076636e-14
  endloop
endfacet
facet normal -0.6087614290087292 -0.7933533402912285 -0.0
  outer loop
    vertex 127.80653984072016 24.28680759058568 -4.511946372076636e-14
    vertex 128.54319860693295 23.72154943833931 2.7999999999999545
    vertex 127.80653984072016 24.28680759058568 2.7999999999999545
  endloop
endfacet
facet normal 0.0 0.0 1.0
  outer loop
    vertex 126.88594555913612 25.881323659446583 2.7999999999999545
    vertex 126.88594555913612 27.722512222614608 2.7999999999999545
    vertex 126.76474702270093 26.801917941030595 2.7999999999999545
  endloop
endfacet
facet normal 0.0 0.0 1.0
  outer loop
    vertex 126.88594555913612 27.722512222614608 2.7999999999999545
    vertex 126.88594555913612 25.881323659446583 2.7999999999999545
    vertex 127.24128168847376 25.023466356798522 2.7999999999999545
  endloop
endfacet
facet normal 0.0 0.0 1.0
  outer loop
    vertex 126.88594555913612 27.722512222614608 2.7999999999999545
    vertex 127.24128168847376 25.023466356798522 2.7999999999999545
    vertex 127.24128168847376 28.580369525262658 2.7999999999999545
  endloop
endfacet
facet normal 0.0 0.0 1.0
  outer loop
    vertex 127.24128168847376 28.580369525262658 2.7999999999999545
    vertex 127.24128168847376 25.023466356798522 2.7999999999999545
    vertex 127.80653984072016 24.28680759058568 2.7999999999999545
  endloop
endfacet
facet normal 0.0 0.0 1.0
  outer loop
    vertex 127.24128168847376 28.580369525262658 2.7999999999999545
    vertex 127.80653984072016 24.28680759058568 2.7999999999999545
    vertex 127.57165019116505 26.801917941030595 2.7999999999999545
  endloop
endfacet
facet normal 0.0 0.0 1.0
  outer loop
    vertex 127.57165019116505 26.801917941030595 2.7999999999999545
    vertex 127.80653984072016 24.28680759058568 2.7999999999999545
    vertex 127.66535416887011 26.09016556699866 2.7999999999999545
  endloop
endfacet
facet normal 0.0 0.0 1.0
  outer loop
    vertex 127.66535416887011 26.09016556699866 2.7999999999999545
    vertex 127.80653984072016 24.28680759058568 2.7999999999999545
    vertex 127.94008033075785 25.42691794103059 2.7999999999999545
  endloop
endfacet
facet normal 0.0 0.0 1.0
  outer loop
    vertex 127.94008033075785 25.42691794103059 2.7999999999999545
    vertex 127.80653984072016 24.28680759058568 2.7999999999999545
    vertex 128.54319860693295 23.72154943833931 2.7999999999999545
  endloop
endfacet
facet normal 0.0 0.0 1.0
  outer loop
    vertex 127.94008033075785 25.42691794103059 2.7999999999999545
    vertex 128.54319860693295 23.72154943833931 2.7999999999999545
    vertex 128.37710654290206 24.857374292767584 2.7999999999999545
  endloop
endfacet
facet normal 0.0 0.0 1.0
  outer loop
    vertex 128.37710654290206 24.857374292767584 2.7999999999999545
    vertex 128.54319860693295 23.72154943833931 2.7999999999999545
    vertex 128.94665019116505 24.42034808062338 2.7999999999999545
  endloop
endfacet
facet normal 0.0 0.0 1.0
  outer loop
    vertex 128.94665019116505 24.42034808062338 2.7999999999999545
    vertex 128.54319860693295 23.72154943833931 2.7999999999999545
    vertex 129.40105590958106 23.366213309001676 2.7999999999999545
  endloop
endfacet
facet normal 0.0 0.0 1.0
  outer loop
    vertex 128.94665019116505 24.42034808062338 2.7999999999999545
    vertex 129.40105590958106 23.366213309001676 2.7999999999999545
    vertex 129.60989781713315 24.14562191873565 2.7999999999999545
  endloop
endfacet
facet normal 0.0 0.0 1.0
  outer loop
    vertex 129.60989781713315 24.14562191873565 2.7999999999999545
    vertex 129.40105590958106 23.366213309001676 2.7999999999999545
    vertex 130.32165019116505 23.245014772566464 2.7999999999999545
  endloop
endfacet
facet normal 0.0 0.0 1.0
  outer loop
    vertex 129.60989781713315 24.14562191873565 2.7999999999999545
    vertex 130.32165019116505 23.245014772566464 2.7999999999999545
    vertex 130.32165019116505 24.051917941030588 2.7999999999999545
  endloop
endfacet
facet normal 0.0 0.0 1.0
  outer loop
    vertex 130.32165019116505 24.051917941030588 2.7999999999999545
    vertex 130.32165019116505 23.245014772566464 2.7999999999999545
    vertex 131.24224447274906 23.366213309001672 2.7999999999999545
  endloop
endfacet
facet normal 0.0 0.0 1.0
  outer loop
    vertex 130.32165019116505 24.051917941030588 2.7999999999999545
    vertex 131.24224447274906 23.366213309001672 2.7999999999999545
    vertex 131.03340256519698 24.14562191873565 2.7999999999999545
  endloop
endfacet
facet normal 0.0 0.0 1.0
  outer loop
    vertex 131.03340256519698 24.14562191873565 2.7999999999999545
    vertex 131.24224447274906 23.366213309001672 2.7999999999999545
    vertex 131.69665019116505 24.42034808062338 2.7999999999999545
  endloop
endfacet
facet normal 0.0 0.0 1.0
  outer loop
    vertex 131.69665019116505 24.42034808062338 2.7999999999999545
    vertex 131.24224447274906 23.366213309001672 2.7999999999999545
    vertex 132.10010177539715 23.72154943833931 2.7999999999999545
  endloop
endfacet
facet normal 0.0 0.0 1.0
  outer loop
    vertex 131.69665019116505 24.42034808062338 2.7999999999999545
    vertex 132.10010177539715 23.72154943833931 2.7999999999999545
    vertex 132.26619383942804 24.857374292767584 2.7999999999999545
  endloop
endfacet
facet normal 0.0 0.0 1.0
  outer loop
    vertex 132.26619383942804 24.857374292767584 2.7999999999999545
    vertex 132.10010177539715 23.72154943833931 2.7999999999999545
    vertex 132.83676054160995 24.28680759058568 2.7999999999999545
  endloop
endfacet
facet normal 0.0 0.0 1.0
  outer loop
    vertex 132.26619383942804 24.857374292767584 2.7999999999999545
    vertex 132.83676054160995 24.28680759058568 2.7999999999999545
    vertex 132.70322005157226 25.42691794103059 2.7999999999999545
  endloop
endfacet
facet normal 0.0 0.0 1.0
  outer loop
    vertex 132.70322005157226 25.42691794103059 2.7999999999999545
    vertex 132.83676054160995 24.28680759058568 2.7999999999999545
    vertex 132.97794621346 26.09016556699866 2.7999999999999545
  endloop
endfacet
facet normal 0.0 0.0 1.0
  outer loop
    vertex 132.97794621346 26.09016556699866 2.7999999999999545
    vertex 132.83676054160995 24.28680759058568 2.7999999999999545
    vertex 133.40201869385635 25.023466356798522 2.7999999999999545
  endloop
endfacet
facet normal 0.0 0.0 1.0
  outer loop
    vertex 132.97794621346 26.09016556699866 2.7999999999999545
    vertex 133.40201869385635 25.023466356798522 2.7999999999999545
    vertex 133.07165019116505 26.801917941030595 2.7999999999999545
  endloop
endfacet
facet normal 0.0 0.0 1.0
  outer loop
    vertex 127.57165019116505 26.801917941030595 2.7999999999999545
    vertex 127.80653984072016 29.317028291475502 2.7999999999999545
    vertex 127.24128168847376 28.580369525262658 2.7999999999999545
  endloop
endfacet
facet normal 0.0 0.0 1.0
  outer loop
    vertex 127.80653984072016 29.317028291475502 2.7999999999999545
    vertex 127.57165019116505 26.801917941030595 2.7999999999999545
    vertex 127.66535416887011 27.51367031506253 2.7999999999999545
  endloop
endfacet
facet normal 0.0 0.0 1.0
  outer loop
    vertex 127.80653984072016 29.317028291475502 2.7999999999999545
    vertex 127.66535416887011 27.51367031506253 2.7999999999999545
    vertex 127.94008033075785 28.176917941030595 2.7999999999999545
  endloop
endfacet
facet normal 0.0 0.0 1.0
  outer loop
    vertex 127.80653984072016 29.317028291475502 2.7999999999999545
    vertex 127.94008033075785 28.176917941030595 2.7999999999999545
    vertex 128.54319860693295 29.88228644372188 2.7999999999999545
  endloop
endfacet
facet normal 0.0 0.0 1.0
  outer loop
    vertex 128.54319860693295 29.88228644372188 2.7999999999999545
    vertex 127.94008033075785 28.176917941030595 2.7999999999999545
    vertex 128.37710654290206 28.746461589293606 2.7999999999999545
  endloop
endfacet
facet normal 0.0 0.0 1.0
  outer loop
    vertex 128.54319860693295 29.88228644372188 2.7999999999999545
    vertex 128.37710654290206 28.746461589293606 2.7999999999999545
    vertex 128.94665019116505 29.18348780143781 2.7999999999999545
  endloop
endfacet
facet normal 0.0 0.0 1.0
  outer loop
    vertex 128.54319860693295 29.88228644372188 2.7999999999999545
    vertex 128.94665019116505 29.18348780143781 2.7999999999999545
    vertex 129.40105590958106 30.237622573059507 2.7999999999999545
  endloop
endfacet
facet normal 0.0 0.0 1.0
  outer loop
    vertex 129.40105590958106 30.237622573059507 2.7999999999999545
    vertex 128.94665019116505 29.18348780143781 2.7999999999999545
    vertex 129.60989781713315 29.458213963325537 2.7999999999999545
  endloop
endfacet
facet normal 0.0 0.0 1.0
  outer loop
    vertex 129.40105590958106 30.237622573059507 2.7999999999999545
    vertex 129.60989781713315 29.458213963325537 2.7999999999999545
    vertex 130.32165019116508 30.358821109494723 2.7999999999999545
  endloop
endfacet
facet normal 0.0 0.0 1.0
  outer loop
    vertex 130.32165019116508 30.358821109494723 2.7999999999999545
    vertex 129.60989781713315 29.458213963325537 2.7999999999999545
    vertex 130.32165019116505 29.5519179410306 2.7999999999999545
  endloop
endfacet
facet normal 0.0 0.0 1.0
  outer loop
    vertex 130.32165019116508 30.358821109494723 2.7999999999999545
    vertex 130.32165019116505 29.5519179410306 2.7999999999999545
    vertex 131.033402565197 29.458213963325537 2.7999999999999545
  endloop
endfacet
facet normal 0.0 0.0 1.0
  outer loop
    vertex 130.32165019116508 30.358821109494723 2.7999999999999545
    vertex 131.033402565197 29.458213963325537 2.7999999999999545
    vertex 131.24224447274906 30.237622573059515 2.7999999999999545
  endloop
endfacet
facet normal 0.0 0.0 1.0
  outer loop
    vertex 131.24224447274906 30.237622573059515 2.7999999999999545
    vertex 131.033402565197 29.458213963325537 2.7999999999999545
    vertex 131.69665019116505 29.183487801437803 2.7999999999999545
  endloop
endfacet
facet normal 0.0 0.0 1.0
  outer loop
    vertex 131.24224447274906 30.237622573059515 2.7999999999999545
    vertex 131.69665019116505 29.183487801437803 2.7999999999999545
    vertex 132.10010177539712 29.882286443721892 2.7999999999999545
  endloop
endfacet
facet normal 0.0 0.0 1.0
  outer loop
    vertex 132.10010177539712 29.882286443721892 2.7999999999999545
    vertex 131.69665019116505 29.183487801437803 2.7999999999999545
    vertex 132.26619383942807 28.746461589293606 2.7999999999999545
  endloop
endfacet
facet normal 0.0 0.0 1.0
  outer loop
    vertex 132.10010177539712 29.882286443721892 2.7999999999999545
    vertex 132.26619383942807 28.746461589293606 2.7999999999999545
    vertex 132.83676054160995 29.317028291475513 2.7999999999999545
  endloop
endfacet
facet normal 0.0 0.0 1.0
  outer loop
    vertex 132.83676054160995 29.317028291475513 2.7999999999999545
    vertex 132.26619383942807 28.746461589293606 2.7999999999999545
    vertex 132.70322005157226 28.176917941030595 2.7999999999999545
  endloop
endfacet
facet normal 0.0 0.0 1.0
  outer loop
    vertex 132.83676054160995 29.317028291475513 2.7999999999999545
    vertex 132.70322005157226 28.176917941030595 2.7999999999999545
    vertex 132.97794621346 27.51367031506253 2.7999999999999545
  endloop
endfacet
facet normal 0.0 0.0 1.0
  outer loop
    vertex 132.83676054160995 29.317028291475513 2.7999999999999545
    vertex 132.97794621346 27.51367031506253 2.7999999999999545
    vertex 133.40201869385638 28.58036952526261 2.7999999999999545
  endloop
endfacet
facet normal 0.0 0.0 1.0
  outer loop
    vertex 133.40201869385638 28.58036952526261 2.7999999999999545
    vertex 132.97794621346 27.51367031506253 2.7999999999999545
    vertex 133.07165019116505 26.801917941030595 2.7999999999999545
  endloop
endfacet
facet normal 0.0 0.0 1.0
  outer loop
    vertex 133.40201869385638 28.58036952526261 2.7999999999999545
    vertex 133.07165019116505 26.801917941030595 2.7999999999999545
    vertex 133.40201869385635 25.023466356798522 2.7999999999999545
  endloop
endfacet
facet normal 0.0 0.0 1.0
  outer loop
    vertex 133.40201869385638 28.58036952526261 2.7999999999999545
    vertex 133.40201869385635 25.023466356798522 2.7999999999999545
    vertex 133.757354823194 25.881323659446583 2.7999999999999545
  endloop
endfacet
facet normal 0.0 0.0 1.0
  outer loop
    vertex 133.40201869385638 28.58036952526261 2.7999999999999545
    vertex 133.757354823194 25.881323659446583 2.7999999999999545
    vertex 133.757354823194 27.722512222614608 2.7999999999999545
  endloop
endfacet
facet normal 0.0 0.0 1.0
  outer loop
    vertex 133.757354823194 27.722512222614608 2.7999999999999545
    vertex 133.757354823194 25.881323659446583 2.7999999999999545
    vertex 133.8785533596292 26.801917941030595 2.7999999999999545
  endloop
endfacet
facet normal -0.38268343236508195 -0.92387953251129 -0.0
  outer loop
    vertex 129.40105590958106 23.366213309001676 2.7999999999999545
    vertex 128.54319860693295 23.72154943833931 -4.511946372076636e-14
    vertex 129.40105590958106 23.366213309001676 -4.511946372076636e-14
  endloop
endfacet
facet normal -0.38268343236508195 -0.92387953251129 -0.0
  outer loop
    vertex 128.54319860693295 23.72154943833931 -4.511946372076636e-14
    vertex 129.40105590958106 23.366213309001676 2.7999999999999545
    vertex 128.54319860693295 23.72154943833931 2.7999999999999545
  endloop
endfacet
facet normal -0.7933533402912291 -0.6087614290087288 -0.0
  outer loop
    vertex 127.24128168847376 25.023466356798522 2.7999999999999545
    vertex 127.80653984072016 24.28680759058568 -4.511946372076636e-14
    vertex 127.80653984072016 24.28680759058568 2.7999999999999545
  endloop
endfacet
facet normal -0.7933533402912291 -0.6087614290087288 -0.0
  outer loop
    vertex 127.80653984072016 24.28680759058568 -4.511946372076636e-14
    vertex 127.24128168847376 25.023466356798522 2.7999999999999545
    vertex 127.24128168847376 25.023466356798522 -4.511946372076636e-14
  endloop
endfacet
facet normal -0.13052619222005427 -0.9914448613738102 -0.0
  outer loop
    vertex 130.32165019116505 23.245014772566464 2.7999999999999545
    vertex 129.40105590958106 23.366213309001676 -4.511946372076636e-14
    vertex 130.32165019116505 23.245014772566464 -4.511946372076636e-14
  endloop
endfacet
facet normal -0.13052619222005427 -0.9914448613738102 -0.0
  outer loop
    vertex 129.40105590958106 23.366213309001676 -4.511946372076636e-14
    vertex 130.32165019116505 23.245014772566464 2.7999999999999545
    vertex 129.40105590958106 23.366213309001676 2.7999999999999545
  endloop
endfacet
facet normal 0.9238795325112822 0.3826834323651007 0.0
  outer loop
    vertex 133.40201869385638 28.58036952526261 -4.511946372076636e-14
    vertex 133.757354823194 27.722512222614608 2.7999999999999545
    vertex 133.757354823194 27.722512222614608 -4.511946372076636e-14
  endloop
endfacet
facet normal 0.9238795325112822 0.3826834323651007 0.0
  outer loop
    vertex 133.757354823194 27.722512222614608 2.7999999999999545
    vertex 133.40201869385638 28.58036952526261 -4.511946372076636e-14
    vertex 133.40201869385638 28.58036952526261 2.7999999999999545
  endloop
endfacet
facet normal 0.7933533402912336 -0.6087614290087227 0.0
  outer loop
    vertex 128.37710654290206 28.746461589293606 -4.511946372076636e-14
    vertex 127.94008033075785 28.176917941030595 2.7999999999999545
    vertex 127.94008033075785 28.176917941030595 -4.511946372076636e-14
  endloop
endfacet
facet normal 0.7933533402912336 -0.6087614290087227 0.0
  outer loop
    vertex 127.94008033075785 28.176917941030595 2.7999999999999545
    vertex 128.37710654290206 28.746461589293606 -4.511946372076636e-14
    vertex 128.37710654290206 28.746461589293606 2.7999999999999545
  endloop
endfacet
facet normal -0.13052619222005135 0.9914448613738104 0.0
  outer loop
    vertex 130.32165019116505 24.051917941030588 2.7999999999999545
    vertex 131.03340256519698 24.14562191873565 -4.511946372076636e-14
    vertex 130.32165019116505 24.051917941030588 -4.511946372076636e-14
  endloop
endfacet
facet normal -0.13052619222005135 0.9914448613738104 0.0
  outer loop
    vertex 131.03340256519698 24.14562191873565 -4.511946372076636e-14
    vertex 130.32165019116505 24.051917941030588 2.7999999999999545
    vertex 131.03340256519698 24.14562191873565 2.7999999999999545
  endloop
endfacet
facet normal -0.7933533402912336 0.6087614290087227 0.0
  outer loop
    vertex 132.70322005157226 25.42691794103059 2.7999999999999545
    vertex 132.26619383942804 24.857374292767584 -4.511946372076636e-14
    vertex 132.26619383942804 24.857374292767584 2.7999999999999545
  endloop
endfacet
facet normal -0.7933533402912336 0.6087614290087227 0.0
  outer loop
    vertex 132.26619383942804 24.857374292767584 -4.511946372076636e-14
    vertex 132.70322005157226 25.42691794103059 2.7999999999999545
    vertex 132.70322005157226 25.42691794103059 -4.511946372076636e-14
  endloop
endfacet
facet normal -0.9238795325112817 0.3826834323651018 0.0
  outer loop
    vertex 132.97794621346 26.09016556699866 2.7999999999999545
    vertex 132.70322005157226 25.42691794103059 -4.511946372076636e-14
    vertex 132.70322005157226 25.42691794103059 2.7999999999999545
  endloop
endfacet
facet normal -0.9238795325112817 0.3826834323651018 0.0
  outer loop
    vertex 132.70322005157226 25.42691794103059 -4.511946372076636e-14
    vertex 132.97794621346 26.09016556699866 2.7999999999999545
    vertex 132.97794621346 26.09016556699866 -4.511946372076636e-14
  endloop
endfacet
facet normal -0.9914448613738132 0.13052619222003178 0.0
  outer loop
    vertex 126.88594555913612 27.722512222614608 2.7999999999999545
    vertex 126.76474702270093 26.801917941030595 -4.511946372076636e-14
    vertex 126.76474702270093 26.801917941030595 2.7999999999999545
  endloop
endfacet
facet normal -0.9914448613738132 0.13052619222003178 0.0
  outer loop
    vertex 126.76474702270093 26.801917941030595 -4.511946372076636e-14
    vertex 126.88594555913612 27.722512222614608 2.7999999999999545
    vertex 126.88594555913612 27.722512222614608 -4.511946372076636e-14
  endloop
endfacet
facet normal -0.7933533402912313 0.6087614290087259 0.0
  outer loop
    vertex 127.80653984072016 29.317028291475502 2.7999999999999545
    vertex 127.24128168847376 28.580369525262658 -4.511946372076636e-14
    vertex 127.24128168847376 28.580369525262658 2.7999999999999545
  endloop
endfacet
facet normal -0.7933533402912313 0.6087614290087259 0.0
  outer loop
    vertex 127.24128168847376 28.580369525262658 -4.511946372076636e-14
    vertex 127.80653984072016 29.317028291475502 2.7999999999999545
    vertex 127.80653984072016 29.317028291475502 -4.511946372076636e-14
  endloop
endfacet
facet normal -0.1305261922200541 0.9914448613738102 0.0
  outer loop
    vertex 129.40105590958106 30.237622573059507 2.7999999999999545
    vertex 130.32165019116508 30.358821109494723 -4.511946372076636e-14
    vertex 129.40105590958106 30.237622573059507 -4.511946372076636e-14
  endloop
endfacet
facet normal -0.1305261922200541 0.9914448613738102 0.0
  outer loop
    vertex 130.32165019116508 30.358821109494723 -4.511946372076636e-14
    vertex 129.40105590958106 30.237622573059507 2.7999999999999545
    vertex 130.32165019116508 30.358821109494723 2.7999999999999545
  endloop
endfacet
facet normal 0.9914448613738132 -0.13052619222003178 0.0
  outer loop
    vertex 133.8785533596292 26.801917941030595 -4.511946372076636e-14
    vertex 133.757354823194 25.881323659446583 2.7999999999999545
    vertex 133.757354823194 25.881323659446583 -4.511946372076636e-14
  endloop
endfacet
facet normal 0.9914448613738132 -0.13052619222003178 0.0
  outer loop
    vertex 133.757354823194 25.881323659446583 2.7999999999999545
    vertex 133.8785533596292 26.801917941030595 -4.511946372076636e-14
    vertex 133.8785533596292 26.801917941030595 2.7999999999999545
  endloop
endfacet
facet normal 0.9914448613738132 0.13052619222003178 0.0
  outer loop
    vertex 133.757354823194 27.722512222614608 -4.511946372076636e-14
    vertex 133.8785533596292 26.801917941030595 2.7999999999999545
    vertex 133.8785533596292 26.801917941030595 -4.511946372076636e-14
  endloop
endfacet
facet normal 0.9914448613738132 0.13052619222003178 0.0
  outer loop
    vertex 133.8785533596292 26.801917941030595 2.7999999999999545
    vertex 133.757354823194 27.722512222614608 -4.511946372076636e-14
    vertex 133.757354823194 27.722512222614608 2.7999999999999545
  endloop
endfacet
facet normal 0.6087614290087292 -0.7933533402912285 0.0
  outer loop
    vertex 132.83676054160995 24.28680759058568 2.7999999999999545
    vertex 132.10010177539715 23.72154943833931 -4.511946372076636e-14
    vertex 132.83676054160995 24.28680759058568 -4.511946372076636e-14
  endloop
endfacet
facet normal 0.6087614290087292 -0.7933533402912285 0.0
  outer loop
    vertex 132.10010177539715 23.72154943833931 -4.511946372076636e-14
    vertex 132.83676054160995 24.28680759058568 2.7999999999999545
    vertex 132.10010177539715 23.72154943833931 2.7999999999999545
  endloop
endfacet
facet normal 0.9238795325112817 -0.3826834323651018 0.0
  outer loop
    vertex 127.94008033075785 28.176917941030595 -4.511946372076636e-14
    vertex 127.66535416887011 27.51367031506253 2.7999999999999545
    vertex 127.66535416887011 27.51367031506253 -4.511946372076636e-14
  endloop
endfacet
facet normal 0.9238795325112817 -0.3826834323651018 0.0
  outer loop
    vertex 127.66535416887011 27.51367031506253 2.7999999999999545
    vertex 127.94008033075785 28.176917941030595 -4.511946372076636e-14
    vertex 127.94008033075785 28.176917941030595 2.7999999999999545
  endloop
endfacet
facet normal 0.13052619222005127 0.9914448613738105 0.0
  outer loop
    vertex 130.32165019116508 30.358821109494723 2.7999999999999545
    vertex 131.24224447274906 30.237622573059515 -4.511946372076636e-14
    vertex 130.32165019116508 30.358821109494723 -4.511946372076636e-14
  endloop
endfacet
facet normal 0.13052619222005127 0.9914448613738105 0.0
  outer loop
    vertex 131.24224447274906 30.237622573059515 -4.511946372076636e-14
    vertex 130.32165019116508 30.358821109494723 2.7999999999999545
    vertex 131.24224447274906 30.237622573059515 2.7999999999999545
  endloop
endfacet
facet normal 0.9914448613738107 0.13052619222004933 0.0
  outer loop
    vertex 127.57165019116505 26.801917941030595 -4.511946372076636e-14
    vertex 127.66535416887011 26.09016556699866 2.7999999999999545
    vertex 127.66535416887011 26.09016556699866 -4.511946372076636e-14
  endloop
endfacet
facet normal 0.9914448613738107 0.13052619222004933 0.0
  outer loop
    vertex 127.66535416887011 26.09016556699866 2.7999999999999545
    vertex 127.57165019116505 26.801917941030595 -4.511946372076636e-14
    vertex 127.57165019116505 26.801917941030595 2.7999999999999545
  endloop
endfacet
facet normal -0.9238795325112809 0.3826834323651044 0.0
  outer loop
    vertex 127.24128168847376 28.580369525262658 2.7999999999999545
    vertex 126.88594555913612 27.722512222614608 -4.511946372076636e-14
    vertex 126.88594555913612 27.722512222614608 2.7999999999999545
  endloop
endfacet
facet normal -0.9238795325112809 0.3826834323651044 0.0
  outer loop
    vertex 126.88594555913612 27.722512222614608 -4.511946372076636e-14
    vertex 127.24128168847376 28.580369525262658 2.7999999999999545
    vertex 127.24128168847376 28.580369525262658 -4.511946372076636e-14
  endloop
endfacet
facet normal 0.9238795325112817 0.3826834323651018 0.0
  outer loop
    vertex 127.66535416887011 26.09016556699866 -4.511946372076636e-14
    vertex 127.94008033075785 25.42691794103059 2.7999999999999545
    vertex 127.94008033075785 25.42691794103059 -4.511946372076636e-14
  endloop
endfacet
facet normal 0.9238795325112817 0.3826834323651018 0.0
  outer loop
    vertex 127.94008033075785 25.42691794103059 2.7999999999999545
    vertex 127.66535416887011 26.09016556699866 -4.511946372076636e-14
    vertex 127.66535416887011 26.09016556699866 2.7999999999999545
  endloop
endfacet
facet normal -0.3826834323650768 0.9238795325112923 0.0
  outer loop
    vertex 128.54319860693295 29.88228644372188 2.7999999999999545
    vertex 129.40105590958106 30.237622573059507 -4.511946372076636e-14
    vertex 128.54319860693295 29.88228644372188 -4.511946372076636e-14
  endloop
endfacet
facet normal -0.3826834323650768 0.9238795325112923 0.0
  outer loop
    vertex 129.40105590958106 30.237622573059507 -4.511946372076636e-14
    vertex 128.54319860693295 29.88228644372188 2.7999999999999545
    vertex 129.40105590958106 30.237622573059507 2.7999999999999545
  endloop
endfacet
facet normal 0.3826834323650974 0.9238795325112836 0.0
  outer loop
    vertex 131.24224447274906 30.237622573059515 2.7999999999999545
    vertex 132.10010177539712 29.882286443721892 -4.511946372076636e-14
    vertex 131.24224447274906 30.237622573059515 -4.511946372076636e-14
  endloop
endfacet
facet normal 0.3826834323650974 0.9238795325112836 0.0
  outer loop
    vertex 132.10010177539712 29.882286443721892 -4.511946372076636e-14
    vertex 131.24224447274906 30.237622573059515 2.7999999999999545
    vertex 132.10010177539712 29.882286443721892 2.7999999999999545
  endloop
endfacet
facet normal 0.13052619222005135 -0.9914448613738104 0.0
  outer loop
    vertex 130.32165019116505 29.5519179410306 2.7999999999999545
    vertex 129.60989781713315 29.458213963325537 -4.511946372076636e-14
    vertex 130.32165019116505 29.5519179410306 -4.511946372076636e-14
  endloop
endfacet
facet normal 0.13052619222005135 -0.9914448613738104 0.0
  outer loop
    vertex 129.60989781713315 29.458213963325537 -4.511946372076636e-14
    vertex 130.32165019116505 29.5519179410306 2.7999999999999545
    vertex 129.60989781713315 29.458213963325537 2.7999999999999545
  endloop
endfacet
facet normal 0.3826834323650845 -0.9238795325112888 0.0
  outer loop
    vertex 132.10010177539715 23.72154943833931 2.7999999999999545
    vertex 131.24224447274906 23.366213309001672 -4.511946372076636e-14
    vertex 132.10010177539715 23.72154943833931 -4.511946372076636e-14
  endloop
endfacet
facet normal 0.3826834323650845 -0.9238795325112888 0.0
  outer loop
    vertex 131.24224447274906 23.366213309001672 -4.511946372076636e-14
    vertex 132.10010177539715 23.72154943833931 2.7999999999999545
    vertex 131.24224447274906 23.366213309001672 2.7999999999999545
  endloop
endfacet
facet normal 0.6087614290087278 0.7933533402912296 0.0
  outer loop
    vertex 128.37710654290206 24.857374292767584 2.7999999999999545
    vertex 128.94665019116505 24.42034808062338 -4.511946372076636e-14
    vertex 128.37710654290206 24.857374292767584 -4.511946372076636e-14
  endloop
endfacet
facet normal 0.6087614290087278 0.7933533402912296 0.0
  outer loop
    vertex 128.94665019116505 24.42034808062338 -4.511946372076636e-14
    vertex 128.37710654290206 24.857374292767584 2.7999999999999545
    vertex 128.94665019116505 24.42034808062338 2.7999999999999545
  endloop
endfacet
facet normal -0.6087614290087331 0.7933533402912256 0.0
  outer loop
    vertex 127.80653984072016 29.317028291475502 2.7999999999999545
    vertex 128.54319860693295 29.88228644372188 -4.511946372076636e-14
    vertex 127.80653984072016 29.317028291475502 -4.511946372076636e-14
  endloop
endfacet
facet normal -0.6087614290087331 0.7933533402912256 0.0
  outer loop
    vertex 128.54319860693295 29.88228644372188 -4.511946372076636e-14
    vertex 127.80653984072016 29.317028291475502 2.7999999999999545
    vertex 128.54319860693295 29.88228644372188 2.7999999999999545
  endloop
endfacet
facet normal 0.3826834323650829 0.9238795325112896 0.0
  outer loop
    vertex 128.94665019116505 24.42034808062338 2.7999999999999545
    vertex 129.60989781713315 24.14562191873565 -4.511946372076636e-14
    vertex 128.94665019116505 24.42034808062338 -4.511946372076636e-14
  endloop
endfacet
facet normal 0.3826834323650829 0.9238795325112896 0.0
  outer loop
    vertex 129.60989781713315 24.14562191873565 -4.511946372076636e-14
    vertex 128.94665019116505 24.42034808062338 2.7999999999999545
    vertex 129.60989781713315 24.14562191873565 2.7999999999999545
  endloop
endfacet
facet normal 0.7933533402912419 0.6087614290087118 0.0
  outer loop
    vertex 132.83676054160995 29.317028291475513 -4.511946372076636e-14
    vertex 133.40201869385638 28.58036952526261 2.7999999999999545
    vertex 133.40201869385638 28.58036952526261 -4.511946372076636e-14
  endloop
endfacet
facet normal 0.7933533402912419 0.6087614290087118 0.0
  outer loop
    vertex 133.40201869385638 28.58036952526261 2.7999999999999545
    vertex 132.83676054160995 29.317028291475513 -4.511946372076636e-14
    vertex 132.83676054160995 29.317028291475513 2.7999999999999545
  endloop
endfacet
facet normal 0.7933533402912291 -0.6087614290087288 0.0
  outer loop
    vertex 133.40201869385635 25.023466356798522 -4.511946372076636e-14
    vertex 132.83676054160995 24.28680759058568 2.7999999999999545
    vertex 132.83676054160995 24.28680759058568 -4.511946372076636e-14
  endloop
endfacet
facet normal 0.7933533402912291 -0.6087614290087288 0.0
  outer loop
    vertex 132.83676054160995 24.28680759058568 2.7999999999999545
    vertex 133.40201869385635 25.023466356798522 -4.511946372076636e-14
    vertex 133.40201869385635 25.023466356798522 2.7999999999999545
  endloop
endfacet
facet normal 0.6087614290087302 -0.7933533402912277 0.0
  outer loop
    vertex 128.94665019116505 29.18348780143781 2.7999999999999545
    vertex 128.37710654290206 28.746461589293606 -4.511946372076636e-14
    vertex 128.94665019116505 29.18348780143781 -4.511946372076636e-14
  endloop
endfacet
facet normal 0.6087614290087302 -0.7933533402912277 0.0
  outer loop
    vertex 128.37710654290206 28.746461589293606 -4.511946372076636e-14
    vertex 128.94665019116505 29.18348780143781 2.7999999999999545
    vertex 128.37710654290206 28.746461589293606 2.7999999999999545
  endloop
endfacet
facet normal 0.9914448613738107 -0.13052619222004933 0.0
  outer loop
    vertex 127.66535416887011 27.51367031506253 -4.511946372076636e-14
    vertex 127.57165019116505 26.801917941030595 2.7999999999999545
    vertex 127.57165019116505 26.801917941030595 -4.511946372076636e-14
  endloop
endfacet
facet normal 0.9914448613738107 -0.13052619222004933 0.0
  outer loop
    vertex 127.57165019116505 26.801917941030595 2.7999999999999545
    vertex 127.66535416887011 27.51367031506253 -4.511946372076636e-14
    vertex 127.66535416887011 27.51367031506253 2.7999999999999545
  endloop
endfacet
facet normal 0.7933533402912336 0.6087614290087227 0.0
  outer loop
    vertex 127.94008033075785 25.42691794103059 -4.511946372076636e-14
    vertex 128.37710654290206 24.857374292767584 2.7999999999999545
    vertex 128.37710654290206 24.857374292767584 -4.511946372076636e-14
  endloop
endfacet
facet normal 0.7933533402912336 0.6087614290087227 0.0
  outer loop
    vertex 128.37710654290206 24.857374292767584 2.7999999999999545
    vertex 127.94008033075785 25.42691794103059 -4.511946372076636e-14
    vertex 127.94008033075785 25.42691794103059 2.7999999999999545
  endloop
endfacet
facet normal -0.9914448613738132 -0.13052619222003178 -0.0
  outer loop
    vertex 126.76474702270093 26.801917941030595 2.7999999999999545
    vertex 126.88594555913612 25.881323659446583 -4.511946372076636e-14
    vertex 126.88594555913612 25.881323659446583 2.7999999999999545
  endloop
endfacet
facet normal -0.9914448613738132 -0.13052619222003178 -0.0
  outer loop
    vertex 126.88594555913612 25.881323659446583 -4.511946372076636e-14
    vertex 126.76474702270093 26.801917941030595 2.7999999999999545
    vertex 126.76474702270093 26.801917941030595 -4.511946372076636e-14
  endloop
endfacet
facet normal 0.6087614290087097 0.7933533402912436 0.0
  outer loop
    vertex 132.10010177539712 29.882286443721892 2.7999999999999545
    vertex 132.83676054160995 29.317028291475513 -4.511946372076636e-14
    vertex 132.10010177539712 29.882286443721892 -4.511946372076636e-14
  endloop
endfacet
facet normal 0.6087614290087097 0.7933533402912436 0.0
  outer loop
    vertex 132.83676054160995 29.317028291475513 -4.511946372076636e-14
    vertex 132.10010177539712 29.882286443721892 2.7999999999999545
    vertex 132.83676054160995 29.317028291475513 2.7999999999999545
  endloop
endfacet
facet normal 0.3826834323650829 -0.9238795325112896 0.0
  outer loop
    vertex 129.60989781713315 29.458213963325537 2.7999999999999545
    vertex 128.94665019116505 29.18348780143781 -4.511946372076636e-14
    vertex 129.60989781713315 29.458213963325537 -4.511946372076636e-14
  endloop
endfacet
facet normal 0.3826834323650829 -0.9238795325112896 0.0
  outer loop
    vertex 128.94665019116505 29.18348780143781 -4.511946372076636e-14
    vertex 129.60989781713315 29.458213963325537 2.7999999999999545
    vertex 128.94665019116505 29.18348780143781 2.7999999999999545
  endloop
endfacet
facet normal 0.1305261922200552 0.9914448613738099 0.0
  outer loop
    vertex 129.60989781713315 24.14562191873565 2.7999999999999545
    vertex 130.32165019116505 24.051917941030588 -4.511946372076636e-14
    vertex 129.60989781713315 24.14562191873565 -4.511946372076636e-14
  endloop
endfacet
facet normal 0.1305261922200552 0.9914448613738099 0.0
  outer loop
    vertex 130.32165019116505 24.051917941030588 -4.511946372076636e-14
    vertex 129.60989781713315 24.14562191873565 2.7999999999999545
    vertex 130.32165019116505 24.051917941030588 2.7999999999999545
  endloop
endfacet
facet normal -0.38268343236508623 0.9238795325112882 0.0
  outer loop
    vertex 131.03340256519698 24.14562191873565 2.7999999999999545
    vertex 131.69665019116505 24.42034808062338 -4.511946372076636e-14
    vertex 131.03340256519698 24.14562191873565 -4.511946372076636e-14
  endloop
endfacet
facet normal -0.38268343236508623 0.9238795325112882 0.0
  outer loop
    vertex 131.69665019116505 24.42034808062338 -4.511946372076636e-14
    vertex 131.03340256519698 24.14562191873565 2.7999999999999545
    vertex 131.69665019116505 24.42034808062338 2.7999999999999545
  endloop
endfacet
facet normal -0.6087614290087278 0.7933533402912296 0.0
  outer loop
    vertex 131.69665019116505 24.42034808062338 2.7999999999999545
    vertex 132.26619383942804 24.857374292767584 -4.511946372076636e-14
    vertex 131.69665019116505 24.42034808062338 -4.511946372076636e-14
  endloop
endfacet
facet normal -0.6087614290087278 0.7933533402912296 0.0
  outer loop
    vertex 132.26619383942804 24.857374292767584 -4.511946372076636e-14
    vertex 131.69665019116505 24.42034808062338 2.7999999999999545
    vertex 132.26619383942804 24.857374292767584 2.7999999999999545
  endloop
endfacet
facet normal -0.9238795325112822 -0.3826834323651011 -0.0
  outer loop
    vertex 126.88594555913612 25.881323659446583 2.7999999999999545
    vertex 127.24128168847376 25.023466356798522 -4.511946372076636e-14
    vertex 127.24128168847376 25.023466356798522 2.7999999999999545
  endloop
endfacet
facet normal -0.9238795325112822 -0.3826834323651011 -0.0
  outer loop
    vertex 127.24128168847376 25.023466356798522 -4.511946372076636e-14
    vertex 126.88594555913612 25.881323659446583 2.7999999999999545
    vertex 126.88594555913612 25.881323659446583 -4.511946372076636e-14
  endloop
endfacet
facet normal 0.9238795325112822 -0.3826834323651011 0.0
  outer loop
    vertex 133.757354823194 25.881323659446583 -4.511946372076636e-14
    vertex 133.40201869385635 25.023466356798522 2.7999999999999545
    vertex 133.40201869385635 25.023466356798522 -4.511946372076636e-14
  endloop
endfacet
facet normal 0.9238795325112822 -0.3826834323651011 0.0
  outer loop
    vertex 133.40201869385635 25.023466356798522 2.7999999999999545
    vertex 133.757354823194 25.881323659446583 -4.511946372076636e-14
    vertex 133.757354823194 25.881323659446583 2.7999999999999545
  endloop
endfacet
facet normal -0.13052619222004727 -0.9914448613738109 -0.0
  outer loop
    vertex 131.033402565197 29.458213963325537 2.7999999999999545
    vertex 130.32165019116505 29.5519179410306 -4.511946372076636e-14
    vertex 131.033402565197 29.458213963325537 -4.511946372076636e-14
  endloop
endfacet
facet normal -0.13052619222004727 -0.9914448613738109 -0.0
  outer loop
    vertex 130.32165019116505 29.5519179410306 -4.511946372076636e-14
    vertex 131.033402565197 29.458213963325537 2.7999999999999545
    vertex 130.32165019116505 29.5519179410306 2.7999999999999545
  endloop
endfacet
facet normal -0.7933533402912488 -0.6087614290087029 -0.0
  outer loop
    vertex 132.26619383942807 28.746461589293606 2.7999999999999545
    vertex 132.70322005157226 28.176917941030595 -4.511946372076636e-14
    vertex 132.70322005157226 28.176917941030595 2.7999999999999545
  endloop
endfacet
facet normal -0.7933533402912488 -0.6087614290087029 -0.0
  outer loop
    vertex 132.70322005157226 28.176917941030595 -4.511946372076636e-14
    vertex 132.26619383942807 28.746461589293606 2.7999999999999545
    vertex 132.26619383942807 28.746461589293606 -4.511946372076636e-14
  endloop
endfacet
facet normal -0.9238795325112817 -0.3826834323651018 -0.0
  outer loop
    vertex 132.70322005157226 28.176917941030595 2.7999999999999545
    vertex 132.97794621346 27.51367031506253 -4.511946372076636e-14
    vertex 132.97794621346 27.51367031506253 2.7999999999999545
  endloop
endfacet
facet normal -0.9238795325112817 -0.3826834323651018 -0.0
  outer loop
    vertex 132.97794621346 27.51367031506253 -4.511946372076636e-14
    vertex 132.70322005157226 28.176917941030595 2.7999999999999545
    vertex 132.70322005157226 28.176917941030595 -4.511946372076636e-14
  endloop
endfacet
facet normal -0.6087614290087101 -0.7933533402912433 -0.0
  outer loop
    vertex 132.26619383942807 28.746461589293606 2.7999999999999545
    vertex 131.69665019116505 29.183487801437803 -4.511946372076636e-14
    vertex 132.26619383942807 28.746461589293606 -4.511946372076636e-14
  endloop
endfacet
facet normal -0.6087614290087101 -0.7933533402912433 -0.0
  outer loop
    vertex 131.69665019116505 29.183487801437803 -4.511946372076636e-14
    vertex 132.26619383942807 28.746461589293606 2.7999999999999545
    vertex 131.69665019116505 29.183487801437803 2.7999999999999545
  endloop
endfacet
facet normal -0.38268343236510066 -0.9238795325112822 -0.0
  outer loop
    vertex 131.69665019116505 29.183487801437803 2.7999999999999545
    vertex 131.033402565197 29.458213963325537 -4.511946372076636e-14
    vertex 131.69665019116505 29.183487801437803 -4.511946372076636e-14
  endloop
endfacet
facet normal -0.38268343236510066 -0.9238795325112822 -0.0
  outer loop
    vertex 131.033402565197 29.458213963325537 -4.511946372076636e-14
    vertex 131.69665019116505 29.183487801437803 2.7999999999999545
    vertex 131.033402565197 29.458213963325537 2.7999999999999545
  endloop
endfacet
facet normal -0.9914448613738107 0.13052619222004933 0.0
  outer loop
    vertex 133.07165019116505 26.801917941030595 2.7999999999999545
    vertex 132.97794621346 26.09016556699866 -4.511946372076636e-14
    vertex 132.97794621346 26.09016556699866 2.7999999999999545
  endloop
endfacet
facet normal -0.9914448613738107 0.13052619222004933 0.0
  outer loop
    vertex 132.97794621346 26.09016556699866 -4.511946372076636e-14
    vertex 133.07165019116505 26.801917941030595 2.7999999999999545
    vertex 133.07165019116505 26.801917941030595 -4.511946372076636e-14
  endloop
endfacet
facet normal -0.9914448613738107 -0.13052619222004933 -0.0
  outer loop
    vertex 132.97794621346 27.51367031506253 2.7999999999999545
    vertex 133.07165019116505 26.801917941030595 -4.511946372076636e-14
    vertex 133.07165019116505 26.801917941030595 2.7999999999999545
  endloop
endfacet
facet normal -0.9914448613738107 -0.13052619222004933 -0.0
  outer loop
    vertex 133.07165019116505 26.801917941030595 -4.511946372076636e-14
    vertex 132.97794621346 27.51367031506253 2.7999999999999545
    vertex 132.97794621346 27.51367031506253 -4.511946372076636e-14
  endloop
endfacet
facet normal 0.0 0.0 -1.0
  outer loop
    vertex 126.88594555913612 27.722512222614608 -4.511946372076636e-14
    vertex 126.88594555913612 25.881323659446583 -4.511946372076636e-14
    vertex 126.76474702270093 26.801917941030595 -4.511946372076636e-14
  endloop
endfacet
facet normal 0.0 0.0 -1.0
  outer loop
    vertex 126.88594555913612 25.881323659446583 -4.511946372076636e-14
    vertex 126.88594555913612 27.722512222614608 -4.511946372076636e-14
    vertex 127.24128168847376 28.580369525262658 -4.511946372076636e-14
  endloop
endfacet
facet normal 0.0 0.0 -1.0
  outer loop
    vertex 126.88594555913612 25.881323659446583 -4.511946372076636e-14
    vertex 127.24128168847376 28.580369525262658 -4.511946372076636e-14
    vertex 127.24128168847376 25.023466356798522 -4.511946372076636e-14
  endloop
endfacet
facet normal 0.0 0.0 -1.0
  outer loop
    vertex 127.24128168847376 25.023466356798522 -4.511946372076636e-14
    vertex 127.24128168847376 28.580369525262658 -4.511946372076636e-14
    vertex 127.80653984072016 29.317028291475502 -4.511946372076636e-14
  endloop
endfacet
facet normal 0.0 0.0 -1.0
  outer loop
    vertex 127.24128168847376 25.023466356798522 -4.511946372076636e-14
    vertex 127.80653984072016 29.317028291475502 -4.511946372076636e-14
    vertex 127.57165019116505 26.801917941030595 -4.511946372076636e-14
  endloop
endfacet
facet normal 0.0 0.0 -1.0
  outer loop
    vertex 127.57165019116505 26.801917941030595 -4.511946372076636e-14
    vertex 127.80653984072016 29.317028291475502 -4.511946372076636e-14
    vertex 127.66535416887011 27.51367031506253 -4.511946372076636e-14
  endloop
endfacet
facet normal 0.0 0.0 -1.0
  outer loop
    vertex 127.66535416887011 27.51367031506253 -4.511946372076636e-14
    vertex 127.80653984072016 29.317028291475502 -4.511946372076636e-14
    vertex 127.94008033075785 28.176917941030595 -4.511946372076636e-14
  endloop
endfacet
facet normal 0.0 0.0 -1.0
  outer loop
    vertex 127.94008033075785 28.176917941030595 -4.511946372076636e-14
    vertex 127.80653984072016 29.317028291475502 -4.511946372076636e-14
    vertex 128.54319860693295 29.88228644372188 -4.511946372076636e-14
  endloop
endfacet
facet normal 0.0 0.0 -1.0
  outer loop
    vertex 127.94008033075785 28.176917941030595 -4.511946372076636e-14
    vertex 128.54319860693295 29.88228644372188 -4.511946372076636e-14
    vertex 128.37710654290206 28.746461589293606 -4.511946372076636e-14
  endloop
endfacet
facet normal 0.0 0.0 -1.0
  outer loop
    vertex 128.37710654290206 28.746461589293606 -4.511946372076636e-14
    vertex 128.54319860693295 29.88228644372188 -4.511946372076636e-14
    vertex 128.94665019116505 29.18348780143781 -4.511946372076636e-14
  endloop
endfacet
facet normal 0.0 0.0 -1.0
  outer loop
    vertex 128.94665019116505 29.18348780143781 -4.511946372076636e-14
    vertex 128.54319860693295 29.88228644372188 -4.511946372076636e-14
    vertex 129.40105590958106 30.237622573059507 -4.511946372076636e-14
  endloop
endfacet
facet normal 0.0 0.0 -1.0
  outer loop
    vertex 128.94665019116505 29.18348780143781 -4.511946372076636e-14
    vertex 129.40105590958106 30.237622573059507 -4.511946372076636e-14
    vertex 129.60989781713315 29.458213963325537 -4.511946372076636e-14
  endloop
endfacet
facet normal 0.0 0.0 -1.0
  outer loop
    vertex 129.60989781713315 29.458213963325537 -4.511946372076636e-14
    vertex 129.40105590958106 30.237622573059507 -4.511946372076636e-14
    vertex 130.32165019116508 30.358821109494723 -4.511946372076636e-14
  endloop
endfacet
facet normal 0.0 0.0 -1.0
  outer loop
    vertex 129.60989781713315 29.458213963325537 -4.511946372076636e-14
    vertex 130.32165019116508 30.358821109494723 -4.511946372076636e-14
    vertex 130.32165019116505 29.5519179410306 -4.511946372076636e-14
  endloop
endfacet
facet normal 0.0 0.0 -1.0
  outer loop
    vertex 130.32165019116505 29.5519179410306 -4.511946372076636e-14
    vertex 130.32165019116508 30.358821109494723 -4.511946372076636e-14
    vertex 131.033402565197 29.458213963325537 -4.511946372076636e-14
  endloop
endfacet
facet normal 0.0 0.0 -1.0
  outer loop
    vertex 131.033402565197 29.458213963325537 -4.511946372076636e-14
    vertex 130.32165019116508 30.358821109494723 -4.511946372076636e-14
    vertex 131.24224447274906 30.237622573059515 -4.511946372076636e-14
  endloop
endfacet
facet normal 0.0 0.0 -1.0
  outer loop
    vertex 131.033402565197 29.458213963325537 -4.511946372076636e-14
    vertex 131.24224447274906 30.237622573059515 -4.511946372076636e-14
    vertex 131.69665019116505 29.183487801437803 -4.511946372076636e-14
  endloop
endfacet
facet normal 0.0 0.0 -1.0
  outer loop
    vertex 131.69665019116505 29.183487801437803 -4.511946372076636e-14
    vertex 131.24224447274906 30.237622573059515 -4.511946372076636e-14
    vertex 132.10010177539712 29.882286443721892 -4.511946372076636e-14
  endloop
endfacet
facet normal 0.0 0.0 -1.0
  outer loop
    vertex 131.69665019116505 29.183487801437803 -4.511946372076636e-14
    vertex 132.10010177539712 29.882286443721892 -4.511946372076636e-14
    vertex 132.26619383942807 28.746461589293606 -4.511946372076636e-14
  endloop
endfacet
facet normal 0.0 0.0 -1.0
  outer loop
    vertex 132.26619383942807 28.746461589293606 -4.511946372076636e-14
    vertex 132.10010177539712 29.882286443721892 -4.511946372076636e-14
    vertex 132.83676054160995 29.317028291475513 -4.511946372076636e-14
  endloop
endfacet
facet normal 0.0 0.0 -1.0
  outer loop
    vertex 132.26619383942807 28.746461589293606 -4.511946372076636e-14
    vertex 132.83676054160995 29.317028291475513 -4.511946372076636e-14
    vertex 132.70322005157226 28.176917941030595 -4.511946372076636e-14
  endloop
endfacet
facet normal 0.0 0.0 -1.0
  outer loop
    vertex 132.70322005157226 28.176917941030595 -4.511946372076636e-14
    vertex 132.83676054160995 29.317028291475513 -4.511946372076636e-14
    vertex 132.97794621346 27.51367031506253 -4.511946372076636e-14
  endloop
endfacet
facet normal 0.0 0.0 -1.0
  outer loop
    vertex 132.97794621346 27.51367031506253 -4.511946372076636e-14
    vertex 132.83676054160995 29.317028291475513 -4.511946372076636e-14
    vertex 133.40201869385638 28.58036952526261 -4.511946372076636e-14
  endloop
endfacet
facet normal 0.0 0.0 -1.0
  outer loop
    vertex 132.97794621346 27.51367031506253 -4.511946372076636e-14
    vertex 133.40201869385638 28.58036952526261 -4.511946372076636e-14
    vertex 133.07165019116505 26.801917941030595 -4.511946372076636e-14
  endloop
endfacet
facet normal 0.0 0.0 -1.0
  outer loop
    vertex 133.07165019116505 26.801917941030595 -4.511946372076636e-14
    vertex 133.40201869385638 28.58036952526261 -4.511946372076636e-14
    vertex 133.40201869385635 25.023466356798522 -4.511946372076636e-14
  endloop
endfacet
facet normal 0.0 0.0 -1.0
  outer loop
    vertex 133.40201869385635 25.023466356798522 -4.511946372076636e-14
    vertex 133.40201869385638 28.58036952526261 -4.511946372076636e-14
    vertex 133.757354823194 25.881323659446583 -4.511946372076636e-14
  endloop
endfacet
facet normal 0.0 0.0 -1.0
  outer loop
    vertex 133.757354823194 25.881323659446583 -4.511946372076636e-14
    vertex 133.40201869385638 28.58036952526261 -4.511946372076636e-14
    vertex 133.757354823194 27.722512222614608 -4.511946372076636e-14
  endloop
endfacet
facet normal 0.0 0.0 -1.0
  outer loop
    vertex 133.757354823194 25.881323659446583 -4.511946372076636e-14
    vertex 133.757354823194 27.722512222614608 -4.511946372076636e-14
    vertex 133.8785533596292 26.801917941030595 -4.511946372076636e-14
  endloop
endfacet
facet normal 0.0 0.0 -1.0
  outer loop
    vertex 127.57165019116505 26.801917941030595 -4.511946372076636e-14
    vertex 127.80653984072016 24.28680759058568 -4.511946372076636e-14
    vertex 127.24128168847376 25.023466356798522 -4.511946372076636e-14
  endloop
endfacet
facet normal 0.0 0.0 -1.0
  outer loop
    vertex 127.80653984072016 24.28680759058568 -4.511946372076636e-14
    vertex 127.57165019116505 26.801917941030595 -4.511946372076636e-14
    vertex 127.66535416887011 26.09016556699866 -4.511946372076636e-14
  endloop
endfacet
facet normal 0.0 0.0 -1.0
  outer loop
    vertex 127.80653984072016 24.28680759058568 -4.511946372076636e-14
    vertex 127.66535416887011 26.09016556699866 -4.511946372076636e-14
    vertex 127.94008033075785 25.42691794103059 -4.511946372076636e-14
  endloop
endfacet
facet normal 0.0 0.0 -1.0
  outer loop
    vertex 127.80653984072016 24.28680759058568 -4.511946372076636e-14
    vertex 127.94008033075785 25.42691794103059 -4.511946372076636e-14
    vertex 128.54319860693295 23.72154943833931 -4.511946372076636e-14
  endloop
endfacet
facet normal 0.0 0.0 -1.0
  outer loop
    vertex 128.54319860693295 23.72154943833931 -4.511946372076636e-14
    vertex 127.94008033075785 25.42691794103059 -4.511946372076636e-14
    vertex 128.37710654290206 24.857374292767584 -4.511946372076636e-14
  endloop
endfacet
facet normal 0.0 0.0 -1.0
  outer loop
    vertex 128.54319860693295 23.72154943833931 -4.511946372076636e-14
    vertex 128.37710654290206 24.857374292767584 -4.511946372076636e-14
    vertex 128.94665019116505 24.42034808062338 -4.511946372076636e-14
  endloop
endfacet
facet normal 0.0 0.0 -1.0
  outer loop
    vertex 128.54319860693295 23.72154943833931 -4.511946372076636e-14
    vertex 128.94665019116505 24.42034808062338 -4.511946372076636e-14
    vertex 129.40105590958106 23.366213309001676 -4.511946372076636e-14
  endloop
endfacet
facet normal 0.0 0.0 -1.0
  outer loop
    vertex 129.40105590958106 23.366213309001676 -4.511946372076636e-14
    vertex 128.94665019116505 24.42034808062338 -4.511946372076636e-14
    vertex 129.60989781713315 24.14562191873565 -4.511946372076636e-14
  endloop
endfacet
facet normal 0.0 0.0 -1.0
  outer loop
    vertex 129.40105590958106 23.366213309001676 -4.511946372076636e-14
    vertex 129.60989781713315 24.14562191873565 -4.511946372076636e-14
    vertex 130.32165019116505 23.245014772566464 -4.511946372076636e-14
  endloop
endfacet
facet normal 0.0 0.0 -1.0
  outer loop
    vertex 130.32165019116505 23.245014772566464 -4.511946372076636e-14
    vertex 129.60989781713315 24.14562191873565 -4.511946372076636e-14
    vertex 130.32165019116505 24.051917941030588 -4.511946372076636e-14
  endloop
endfacet
facet normal 0.0 0.0 -1.0
  outer loop
    vertex 130.32165019116505 23.245014772566464 -4.511946372076636e-14
    vertex 130.32165019116505 24.051917941030588 -4.511946372076636e-14
    vertex 131.03340256519698 24.14562191873565 -4.511946372076636e-14
  endloop
endfacet
facet normal 0.0 0.0 -1.0
  outer loop
    vertex 130.32165019116505 23.245014772566464 -4.511946372076636e-14
    vertex 131.03340256519698 24.14562191873565 -4.511946372076636e-14
    vertex 131.24224447274906 23.366213309001672 -4.511946372076636e-14
  endloop
endfacet
facet normal 0.0 0.0 -1.0
  outer loop
    vertex 131.24224447274906 23.366213309001672 -4.511946372076636e-14
    vertex 131.03340256519698 24.14562191873565 -4.511946372076636e-14
    vertex 131.69665019116505 24.42034808062338 -4.511946372076636e-14
  endloop
endfacet
facet normal 0.0 0.0 -1.0
  outer loop
    vertex 131.24224447274906 23.366213309001672 -4.511946372076636e-14
    vertex 131.69665019116505 24.42034808062338 -4.511946372076636e-14
    vertex 132.10010177539715 23.72154943833931 -4.511946372076636e-14
  endloop
endfacet
facet normal 0.0 0.0 -1.0
  outer loop
    vertex 132.10010177539715 23.72154943833931 -4.511946372076636e-14
    vertex 131.69665019116505 24.42034808062338 -4.511946372076636e-14
    vertex 132.26619383942804 24.857374292767584 -4.511946372076636e-14
  endloop
endfacet
facet normal 0.0 0.0 -1.0
  outer loop
    vertex 132.10010177539715 23.72154943833931 -4.511946372076636e-14
    vertex 132.26619383942804 24.857374292767584 -4.511946372076636e-14
    vertex 132.83676054160995 24.28680759058568 -4.511946372076636e-14
  endloop
endfacet
facet normal 0.0 0.0 -1.0
  outer loop
    vertex 132.83676054160995 24.28680759058568 -4.511946372076636e-14
    vertex 132.26619383942804 24.857374292767584 -4.511946372076636e-14
    vertex 132.70322005157226 25.42691794103059 -4.511946372076636e-14
  endloop
endfacet
facet normal 0.0 0.0 -1.0
  outer loop
    vertex 132.83676054160995 24.28680759058568 -4.511946372076636e-14
    vertex 132.70322005157226 25.42691794103059 -4.511946372076636e-14
    vertex 132.97794621346 26.09016556699866 -4.511946372076636e-14
  endloop
endfacet
facet normal 0.0 0.0 -1.0
  outer loop
    vertex 132.83676054160995 24.28680759058568 -4.511946372076636e-14
    vertex 132.97794621346 26.09016556699866 -4.511946372076636e-14
    vertex 133.40201869385635 25.023466356798522 -4.511946372076636e-14
  endloop
endfacet
facet normal 0.0 0.0 -1.0
  outer loop
    vertex 133.40201869385635 25.023466356798522 -4.511946372076636e-14
    vertex 132.97794621346 26.09016556699866 -4.511946372076636e-14
    vertex 133.07165019116505 26.801917941030595 -4.511946372076636e-14
  endloop
endfacet
endsolid NSTT rev3_2
